G04 #@! TF.GenerationSoftware,KiCad,Pcbnew,(5.1.5)-3*
G04 #@! TF.CreationDate,2021-07-17T00:54:10+03:00*
G04 #@! TF.ProjectId,kc9102breakout,6b633931-3032-4627-9265-616b6f75742e,rev?*
G04 #@! TF.SameCoordinates,Original*
G04 #@! TF.FileFunction,Paste,Top*
G04 #@! TF.FilePolarity,Positive*
%FSLAX46Y46*%
G04 Gerber Fmt 4.6, Leading zero omitted, Abs format (unit mm)*
G04 Created by KiCad (PCBNEW (5.1.5)-3) date 2021-07-17 00:54:10*
%MOMM*%
%LPD*%
G04 APERTURE LIST*
%ADD10C,0.050000*%
%ADD11C,0.100000*%
%ADD12R,2.000000X1.500000*%
%ADD13R,2.000000X3.800000*%
G04 APERTURE END LIST*
D10*
X42545000Y-100330000D02*
X42545000Y-69215000D01*
X115570000Y-100330000D02*
X42545000Y-100330000D01*
X115570000Y-69215000D02*
X115570000Y-100330000D01*
X42545000Y-69215000D02*
X115570000Y-69215000D01*
D11*
G36*
X62075142Y-87778674D02*
G01*
X62098803Y-87782184D01*
X62122007Y-87787996D01*
X62144529Y-87796054D01*
X62166153Y-87806282D01*
X62186670Y-87818579D01*
X62205883Y-87832829D01*
X62223607Y-87848893D01*
X62239671Y-87866617D01*
X62253921Y-87885830D01*
X62266218Y-87906347D01*
X62276446Y-87927971D01*
X62284504Y-87950493D01*
X62290316Y-87973697D01*
X62293826Y-87997358D01*
X62295000Y-88021250D01*
X62295000Y-88508750D01*
X62293826Y-88532642D01*
X62290316Y-88556303D01*
X62284504Y-88579507D01*
X62276446Y-88602029D01*
X62266218Y-88623653D01*
X62253921Y-88644170D01*
X62239671Y-88663383D01*
X62223607Y-88681107D01*
X62205883Y-88697171D01*
X62186670Y-88711421D01*
X62166153Y-88723718D01*
X62144529Y-88733946D01*
X62122007Y-88742004D01*
X62098803Y-88747816D01*
X62075142Y-88751326D01*
X62051250Y-88752500D01*
X61138750Y-88752500D01*
X61114858Y-88751326D01*
X61091197Y-88747816D01*
X61067993Y-88742004D01*
X61045471Y-88733946D01*
X61023847Y-88723718D01*
X61003330Y-88711421D01*
X60984117Y-88697171D01*
X60966393Y-88681107D01*
X60950329Y-88663383D01*
X60936079Y-88644170D01*
X60923782Y-88623653D01*
X60913554Y-88602029D01*
X60905496Y-88579507D01*
X60899684Y-88556303D01*
X60896174Y-88532642D01*
X60895000Y-88508750D01*
X60895000Y-88021250D01*
X60896174Y-87997358D01*
X60899684Y-87973697D01*
X60905496Y-87950493D01*
X60913554Y-87927971D01*
X60923782Y-87906347D01*
X60936079Y-87885830D01*
X60950329Y-87866617D01*
X60966393Y-87848893D01*
X60984117Y-87832829D01*
X61003330Y-87818579D01*
X61023847Y-87806282D01*
X61045471Y-87796054D01*
X61067993Y-87787996D01*
X61091197Y-87782184D01*
X61114858Y-87778674D01*
X61138750Y-87777500D01*
X62051250Y-87777500D01*
X62075142Y-87778674D01*
G37*
G36*
X62075142Y-89653674D02*
G01*
X62098803Y-89657184D01*
X62122007Y-89662996D01*
X62144529Y-89671054D01*
X62166153Y-89681282D01*
X62186670Y-89693579D01*
X62205883Y-89707829D01*
X62223607Y-89723893D01*
X62239671Y-89741617D01*
X62253921Y-89760830D01*
X62266218Y-89781347D01*
X62276446Y-89802971D01*
X62284504Y-89825493D01*
X62290316Y-89848697D01*
X62293826Y-89872358D01*
X62295000Y-89896250D01*
X62295000Y-90383750D01*
X62293826Y-90407642D01*
X62290316Y-90431303D01*
X62284504Y-90454507D01*
X62276446Y-90477029D01*
X62266218Y-90498653D01*
X62253921Y-90519170D01*
X62239671Y-90538383D01*
X62223607Y-90556107D01*
X62205883Y-90572171D01*
X62186670Y-90586421D01*
X62166153Y-90598718D01*
X62144529Y-90608946D01*
X62122007Y-90617004D01*
X62098803Y-90622816D01*
X62075142Y-90626326D01*
X62051250Y-90627500D01*
X61138750Y-90627500D01*
X61114858Y-90626326D01*
X61091197Y-90622816D01*
X61067993Y-90617004D01*
X61045471Y-90608946D01*
X61023847Y-90598718D01*
X61003330Y-90586421D01*
X60984117Y-90572171D01*
X60966393Y-90556107D01*
X60950329Y-90538383D01*
X60936079Y-90519170D01*
X60923782Y-90498653D01*
X60913554Y-90477029D01*
X60905496Y-90454507D01*
X60899684Y-90431303D01*
X60896174Y-90407642D01*
X60895000Y-90383750D01*
X60895000Y-89896250D01*
X60896174Y-89872358D01*
X60899684Y-89848697D01*
X60905496Y-89825493D01*
X60913554Y-89802971D01*
X60923782Y-89781347D01*
X60936079Y-89760830D01*
X60950329Y-89741617D01*
X60966393Y-89723893D01*
X60984117Y-89707829D01*
X61003330Y-89693579D01*
X61023847Y-89681282D01*
X61045471Y-89671054D01*
X61067993Y-89662996D01*
X61091197Y-89657184D01*
X61114858Y-89653674D01*
X61138750Y-89652500D01*
X62051250Y-89652500D01*
X62075142Y-89653674D01*
G37*
G36*
X69904703Y-89235722D02*
G01*
X69919264Y-89237882D01*
X69933543Y-89241459D01*
X69947403Y-89246418D01*
X69960710Y-89252712D01*
X69973336Y-89260280D01*
X69985159Y-89269048D01*
X69996066Y-89278934D01*
X70005952Y-89289841D01*
X70014720Y-89301664D01*
X70022288Y-89314290D01*
X70028582Y-89327597D01*
X70033541Y-89341457D01*
X70037118Y-89355736D01*
X70039278Y-89370297D01*
X70040000Y-89385000D01*
X70040000Y-89685000D01*
X70039278Y-89699703D01*
X70037118Y-89714264D01*
X70033541Y-89728543D01*
X70028582Y-89742403D01*
X70022288Y-89755710D01*
X70014720Y-89768336D01*
X70005952Y-89780159D01*
X69996066Y-89791066D01*
X69985159Y-89800952D01*
X69973336Y-89809720D01*
X69960710Y-89817288D01*
X69947403Y-89823582D01*
X69933543Y-89828541D01*
X69919264Y-89832118D01*
X69904703Y-89834278D01*
X69890000Y-89835000D01*
X68540000Y-89835000D01*
X68525297Y-89834278D01*
X68510736Y-89832118D01*
X68496457Y-89828541D01*
X68482597Y-89823582D01*
X68469290Y-89817288D01*
X68456664Y-89809720D01*
X68444841Y-89800952D01*
X68433934Y-89791066D01*
X68424048Y-89780159D01*
X68415280Y-89768336D01*
X68407712Y-89755710D01*
X68401418Y-89742403D01*
X68396459Y-89728543D01*
X68392882Y-89714264D01*
X68390722Y-89699703D01*
X68390000Y-89685000D01*
X68390000Y-89385000D01*
X68390722Y-89370297D01*
X68392882Y-89355736D01*
X68396459Y-89341457D01*
X68401418Y-89327597D01*
X68407712Y-89314290D01*
X68415280Y-89301664D01*
X68424048Y-89289841D01*
X68433934Y-89278934D01*
X68444841Y-89269048D01*
X68456664Y-89260280D01*
X68469290Y-89252712D01*
X68482597Y-89246418D01*
X68496457Y-89241459D01*
X68510736Y-89237882D01*
X68525297Y-89235722D01*
X68540000Y-89235000D01*
X69890000Y-89235000D01*
X69904703Y-89235722D01*
G37*
G36*
X69904703Y-90505722D02*
G01*
X69919264Y-90507882D01*
X69933543Y-90511459D01*
X69947403Y-90516418D01*
X69960710Y-90522712D01*
X69973336Y-90530280D01*
X69985159Y-90539048D01*
X69996066Y-90548934D01*
X70005952Y-90559841D01*
X70014720Y-90571664D01*
X70022288Y-90584290D01*
X70028582Y-90597597D01*
X70033541Y-90611457D01*
X70037118Y-90625736D01*
X70039278Y-90640297D01*
X70040000Y-90655000D01*
X70040000Y-90955000D01*
X70039278Y-90969703D01*
X70037118Y-90984264D01*
X70033541Y-90998543D01*
X70028582Y-91012403D01*
X70022288Y-91025710D01*
X70014720Y-91038336D01*
X70005952Y-91050159D01*
X69996066Y-91061066D01*
X69985159Y-91070952D01*
X69973336Y-91079720D01*
X69960710Y-91087288D01*
X69947403Y-91093582D01*
X69933543Y-91098541D01*
X69919264Y-91102118D01*
X69904703Y-91104278D01*
X69890000Y-91105000D01*
X68540000Y-91105000D01*
X68525297Y-91104278D01*
X68510736Y-91102118D01*
X68496457Y-91098541D01*
X68482597Y-91093582D01*
X68469290Y-91087288D01*
X68456664Y-91079720D01*
X68444841Y-91070952D01*
X68433934Y-91061066D01*
X68424048Y-91050159D01*
X68415280Y-91038336D01*
X68407712Y-91025710D01*
X68401418Y-91012403D01*
X68396459Y-90998543D01*
X68392882Y-90984264D01*
X68390722Y-90969703D01*
X68390000Y-90955000D01*
X68390000Y-90655000D01*
X68390722Y-90640297D01*
X68392882Y-90625736D01*
X68396459Y-90611457D01*
X68401418Y-90597597D01*
X68407712Y-90584290D01*
X68415280Y-90571664D01*
X68424048Y-90559841D01*
X68433934Y-90548934D01*
X68444841Y-90539048D01*
X68456664Y-90530280D01*
X68469290Y-90522712D01*
X68482597Y-90516418D01*
X68496457Y-90511459D01*
X68510736Y-90507882D01*
X68525297Y-90505722D01*
X68540000Y-90505000D01*
X69890000Y-90505000D01*
X69904703Y-90505722D01*
G37*
G36*
X69904703Y-91775722D02*
G01*
X69919264Y-91777882D01*
X69933543Y-91781459D01*
X69947403Y-91786418D01*
X69960710Y-91792712D01*
X69973336Y-91800280D01*
X69985159Y-91809048D01*
X69996066Y-91818934D01*
X70005952Y-91829841D01*
X70014720Y-91841664D01*
X70022288Y-91854290D01*
X70028582Y-91867597D01*
X70033541Y-91881457D01*
X70037118Y-91895736D01*
X70039278Y-91910297D01*
X70040000Y-91925000D01*
X70040000Y-92225000D01*
X70039278Y-92239703D01*
X70037118Y-92254264D01*
X70033541Y-92268543D01*
X70028582Y-92282403D01*
X70022288Y-92295710D01*
X70014720Y-92308336D01*
X70005952Y-92320159D01*
X69996066Y-92331066D01*
X69985159Y-92340952D01*
X69973336Y-92349720D01*
X69960710Y-92357288D01*
X69947403Y-92363582D01*
X69933543Y-92368541D01*
X69919264Y-92372118D01*
X69904703Y-92374278D01*
X69890000Y-92375000D01*
X68540000Y-92375000D01*
X68525297Y-92374278D01*
X68510736Y-92372118D01*
X68496457Y-92368541D01*
X68482597Y-92363582D01*
X68469290Y-92357288D01*
X68456664Y-92349720D01*
X68444841Y-92340952D01*
X68433934Y-92331066D01*
X68424048Y-92320159D01*
X68415280Y-92308336D01*
X68407712Y-92295710D01*
X68401418Y-92282403D01*
X68396459Y-92268543D01*
X68392882Y-92254264D01*
X68390722Y-92239703D01*
X68390000Y-92225000D01*
X68390000Y-91925000D01*
X68390722Y-91910297D01*
X68392882Y-91895736D01*
X68396459Y-91881457D01*
X68401418Y-91867597D01*
X68407712Y-91854290D01*
X68415280Y-91841664D01*
X68424048Y-91829841D01*
X68433934Y-91818934D01*
X68444841Y-91809048D01*
X68456664Y-91800280D01*
X68469290Y-91792712D01*
X68482597Y-91786418D01*
X68496457Y-91781459D01*
X68510736Y-91777882D01*
X68525297Y-91775722D01*
X68540000Y-91775000D01*
X69890000Y-91775000D01*
X69904703Y-91775722D01*
G37*
G36*
X69904703Y-93045722D02*
G01*
X69919264Y-93047882D01*
X69933543Y-93051459D01*
X69947403Y-93056418D01*
X69960710Y-93062712D01*
X69973336Y-93070280D01*
X69985159Y-93079048D01*
X69996066Y-93088934D01*
X70005952Y-93099841D01*
X70014720Y-93111664D01*
X70022288Y-93124290D01*
X70028582Y-93137597D01*
X70033541Y-93151457D01*
X70037118Y-93165736D01*
X70039278Y-93180297D01*
X70040000Y-93195000D01*
X70040000Y-93495000D01*
X70039278Y-93509703D01*
X70037118Y-93524264D01*
X70033541Y-93538543D01*
X70028582Y-93552403D01*
X70022288Y-93565710D01*
X70014720Y-93578336D01*
X70005952Y-93590159D01*
X69996066Y-93601066D01*
X69985159Y-93610952D01*
X69973336Y-93619720D01*
X69960710Y-93627288D01*
X69947403Y-93633582D01*
X69933543Y-93638541D01*
X69919264Y-93642118D01*
X69904703Y-93644278D01*
X69890000Y-93645000D01*
X68540000Y-93645000D01*
X68525297Y-93644278D01*
X68510736Y-93642118D01*
X68496457Y-93638541D01*
X68482597Y-93633582D01*
X68469290Y-93627288D01*
X68456664Y-93619720D01*
X68444841Y-93610952D01*
X68433934Y-93601066D01*
X68424048Y-93590159D01*
X68415280Y-93578336D01*
X68407712Y-93565710D01*
X68401418Y-93552403D01*
X68396459Y-93538543D01*
X68392882Y-93524264D01*
X68390722Y-93509703D01*
X68390000Y-93495000D01*
X68390000Y-93195000D01*
X68390722Y-93180297D01*
X68392882Y-93165736D01*
X68396459Y-93151457D01*
X68401418Y-93137597D01*
X68407712Y-93124290D01*
X68415280Y-93111664D01*
X68424048Y-93099841D01*
X68433934Y-93088934D01*
X68444841Y-93079048D01*
X68456664Y-93070280D01*
X68469290Y-93062712D01*
X68482597Y-93056418D01*
X68496457Y-93051459D01*
X68510736Y-93047882D01*
X68525297Y-93045722D01*
X68540000Y-93045000D01*
X69890000Y-93045000D01*
X69904703Y-93045722D01*
G37*
G36*
X64654703Y-93045722D02*
G01*
X64669264Y-93047882D01*
X64683543Y-93051459D01*
X64697403Y-93056418D01*
X64710710Y-93062712D01*
X64723336Y-93070280D01*
X64735159Y-93079048D01*
X64746066Y-93088934D01*
X64755952Y-93099841D01*
X64764720Y-93111664D01*
X64772288Y-93124290D01*
X64778582Y-93137597D01*
X64783541Y-93151457D01*
X64787118Y-93165736D01*
X64789278Y-93180297D01*
X64790000Y-93195000D01*
X64790000Y-93495000D01*
X64789278Y-93509703D01*
X64787118Y-93524264D01*
X64783541Y-93538543D01*
X64778582Y-93552403D01*
X64772288Y-93565710D01*
X64764720Y-93578336D01*
X64755952Y-93590159D01*
X64746066Y-93601066D01*
X64735159Y-93610952D01*
X64723336Y-93619720D01*
X64710710Y-93627288D01*
X64697403Y-93633582D01*
X64683543Y-93638541D01*
X64669264Y-93642118D01*
X64654703Y-93644278D01*
X64640000Y-93645000D01*
X63290000Y-93645000D01*
X63275297Y-93644278D01*
X63260736Y-93642118D01*
X63246457Y-93638541D01*
X63232597Y-93633582D01*
X63219290Y-93627288D01*
X63206664Y-93619720D01*
X63194841Y-93610952D01*
X63183934Y-93601066D01*
X63174048Y-93590159D01*
X63165280Y-93578336D01*
X63157712Y-93565710D01*
X63151418Y-93552403D01*
X63146459Y-93538543D01*
X63142882Y-93524264D01*
X63140722Y-93509703D01*
X63140000Y-93495000D01*
X63140000Y-93195000D01*
X63140722Y-93180297D01*
X63142882Y-93165736D01*
X63146459Y-93151457D01*
X63151418Y-93137597D01*
X63157712Y-93124290D01*
X63165280Y-93111664D01*
X63174048Y-93099841D01*
X63183934Y-93088934D01*
X63194841Y-93079048D01*
X63206664Y-93070280D01*
X63219290Y-93062712D01*
X63232597Y-93056418D01*
X63246457Y-93051459D01*
X63260736Y-93047882D01*
X63275297Y-93045722D01*
X63290000Y-93045000D01*
X64640000Y-93045000D01*
X64654703Y-93045722D01*
G37*
G36*
X64654703Y-91775722D02*
G01*
X64669264Y-91777882D01*
X64683543Y-91781459D01*
X64697403Y-91786418D01*
X64710710Y-91792712D01*
X64723336Y-91800280D01*
X64735159Y-91809048D01*
X64746066Y-91818934D01*
X64755952Y-91829841D01*
X64764720Y-91841664D01*
X64772288Y-91854290D01*
X64778582Y-91867597D01*
X64783541Y-91881457D01*
X64787118Y-91895736D01*
X64789278Y-91910297D01*
X64790000Y-91925000D01*
X64790000Y-92225000D01*
X64789278Y-92239703D01*
X64787118Y-92254264D01*
X64783541Y-92268543D01*
X64778582Y-92282403D01*
X64772288Y-92295710D01*
X64764720Y-92308336D01*
X64755952Y-92320159D01*
X64746066Y-92331066D01*
X64735159Y-92340952D01*
X64723336Y-92349720D01*
X64710710Y-92357288D01*
X64697403Y-92363582D01*
X64683543Y-92368541D01*
X64669264Y-92372118D01*
X64654703Y-92374278D01*
X64640000Y-92375000D01*
X63290000Y-92375000D01*
X63275297Y-92374278D01*
X63260736Y-92372118D01*
X63246457Y-92368541D01*
X63232597Y-92363582D01*
X63219290Y-92357288D01*
X63206664Y-92349720D01*
X63194841Y-92340952D01*
X63183934Y-92331066D01*
X63174048Y-92320159D01*
X63165280Y-92308336D01*
X63157712Y-92295710D01*
X63151418Y-92282403D01*
X63146459Y-92268543D01*
X63142882Y-92254264D01*
X63140722Y-92239703D01*
X63140000Y-92225000D01*
X63140000Y-91925000D01*
X63140722Y-91910297D01*
X63142882Y-91895736D01*
X63146459Y-91881457D01*
X63151418Y-91867597D01*
X63157712Y-91854290D01*
X63165280Y-91841664D01*
X63174048Y-91829841D01*
X63183934Y-91818934D01*
X63194841Y-91809048D01*
X63206664Y-91800280D01*
X63219290Y-91792712D01*
X63232597Y-91786418D01*
X63246457Y-91781459D01*
X63260736Y-91777882D01*
X63275297Y-91775722D01*
X63290000Y-91775000D01*
X64640000Y-91775000D01*
X64654703Y-91775722D01*
G37*
G36*
X64654703Y-90505722D02*
G01*
X64669264Y-90507882D01*
X64683543Y-90511459D01*
X64697403Y-90516418D01*
X64710710Y-90522712D01*
X64723336Y-90530280D01*
X64735159Y-90539048D01*
X64746066Y-90548934D01*
X64755952Y-90559841D01*
X64764720Y-90571664D01*
X64772288Y-90584290D01*
X64778582Y-90597597D01*
X64783541Y-90611457D01*
X64787118Y-90625736D01*
X64789278Y-90640297D01*
X64790000Y-90655000D01*
X64790000Y-90955000D01*
X64789278Y-90969703D01*
X64787118Y-90984264D01*
X64783541Y-90998543D01*
X64778582Y-91012403D01*
X64772288Y-91025710D01*
X64764720Y-91038336D01*
X64755952Y-91050159D01*
X64746066Y-91061066D01*
X64735159Y-91070952D01*
X64723336Y-91079720D01*
X64710710Y-91087288D01*
X64697403Y-91093582D01*
X64683543Y-91098541D01*
X64669264Y-91102118D01*
X64654703Y-91104278D01*
X64640000Y-91105000D01*
X63290000Y-91105000D01*
X63275297Y-91104278D01*
X63260736Y-91102118D01*
X63246457Y-91098541D01*
X63232597Y-91093582D01*
X63219290Y-91087288D01*
X63206664Y-91079720D01*
X63194841Y-91070952D01*
X63183934Y-91061066D01*
X63174048Y-91050159D01*
X63165280Y-91038336D01*
X63157712Y-91025710D01*
X63151418Y-91012403D01*
X63146459Y-90998543D01*
X63142882Y-90984264D01*
X63140722Y-90969703D01*
X63140000Y-90955000D01*
X63140000Y-90655000D01*
X63140722Y-90640297D01*
X63142882Y-90625736D01*
X63146459Y-90611457D01*
X63151418Y-90597597D01*
X63157712Y-90584290D01*
X63165280Y-90571664D01*
X63174048Y-90559841D01*
X63183934Y-90548934D01*
X63194841Y-90539048D01*
X63206664Y-90530280D01*
X63219290Y-90522712D01*
X63232597Y-90516418D01*
X63246457Y-90511459D01*
X63260736Y-90507882D01*
X63275297Y-90505722D01*
X63290000Y-90505000D01*
X64640000Y-90505000D01*
X64654703Y-90505722D01*
G37*
G36*
X64654703Y-89235722D02*
G01*
X64669264Y-89237882D01*
X64683543Y-89241459D01*
X64697403Y-89246418D01*
X64710710Y-89252712D01*
X64723336Y-89260280D01*
X64735159Y-89269048D01*
X64746066Y-89278934D01*
X64755952Y-89289841D01*
X64764720Y-89301664D01*
X64772288Y-89314290D01*
X64778582Y-89327597D01*
X64783541Y-89341457D01*
X64787118Y-89355736D01*
X64789278Y-89370297D01*
X64790000Y-89385000D01*
X64790000Y-89685000D01*
X64789278Y-89699703D01*
X64787118Y-89714264D01*
X64783541Y-89728543D01*
X64778582Y-89742403D01*
X64772288Y-89755710D01*
X64764720Y-89768336D01*
X64755952Y-89780159D01*
X64746066Y-89791066D01*
X64735159Y-89800952D01*
X64723336Y-89809720D01*
X64710710Y-89817288D01*
X64697403Y-89823582D01*
X64683543Y-89828541D01*
X64669264Y-89832118D01*
X64654703Y-89834278D01*
X64640000Y-89835000D01*
X63290000Y-89835000D01*
X63275297Y-89834278D01*
X63260736Y-89832118D01*
X63246457Y-89828541D01*
X63232597Y-89823582D01*
X63219290Y-89817288D01*
X63206664Y-89809720D01*
X63194841Y-89800952D01*
X63183934Y-89791066D01*
X63174048Y-89780159D01*
X63165280Y-89768336D01*
X63157712Y-89755710D01*
X63151418Y-89742403D01*
X63146459Y-89728543D01*
X63142882Y-89714264D01*
X63140722Y-89699703D01*
X63140000Y-89685000D01*
X63140000Y-89385000D01*
X63140722Y-89370297D01*
X63142882Y-89355736D01*
X63146459Y-89341457D01*
X63151418Y-89327597D01*
X63157712Y-89314290D01*
X63165280Y-89301664D01*
X63174048Y-89289841D01*
X63183934Y-89278934D01*
X63194841Y-89269048D01*
X63206664Y-89260280D01*
X63219290Y-89252712D01*
X63232597Y-89246418D01*
X63246457Y-89241459D01*
X63260736Y-89237882D01*
X63275297Y-89235722D01*
X63290000Y-89235000D01*
X64640000Y-89235000D01*
X64654703Y-89235722D01*
G37*
G36*
X72667691Y-91333553D02*
G01*
X72688926Y-91336703D01*
X72709750Y-91341919D01*
X72729962Y-91349151D01*
X72749368Y-91358330D01*
X72767781Y-91369366D01*
X72785024Y-91382154D01*
X72800930Y-91396570D01*
X72815346Y-91412476D01*
X72828134Y-91429719D01*
X72839170Y-91448132D01*
X72848349Y-91467538D01*
X72855581Y-91487750D01*
X72860797Y-91508574D01*
X72863947Y-91529809D01*
X72865000Y-91551250D01*
X72865000Y-91988750D01*
X72863947Y-92010191D01*
X72860797Y-92031426D01*
X72855581Y-92052250D01*
X72848349Y-92072462D01*
X72839170Y-92091868D01*
X72828134Y-92110281D01*
X72815346Y-92127524D01*
X72800930Y-92143430D01*
X72785024Y-92157846D01*
X72767781Y-92170634D01*
X72749368Y-92181670D01*
X72729962Y-92190849D01*
X72709750Y-92198081D01*
X72688926Y-92203297D01*
X72667691Y-92206447D01*
X72646250Y-92207500D01*
X72133750Y-92207500D01*
X72112309Y-92206447D01*
X72091074Y-92203297D01*
X72070250Y-92198081D01*
X72050038Y-92190849D01*
X72030632Y-92181670D01*
X72012219Y-92170634D01*
X71994976Y-92157846D01*
X71979070Y-92143430D01*
X71964654Y-92127524D01*
X71951866Y-92110281D01*
X71940830Y-92091868D01*
X71931651Y-92072462D01*
X71924419Y-92052250D01*
X71919203Y-92031426D01*
X71916053Y-92010191D01*
X71915000Y-91988750D01*
X71915000Y-91551250D01*
X71916053Y-91529809D01*
X71919203Y-91508574D01*
X71924419Y-91487750D01*
X71931651Y-91467538D01*
X71940830Y-91448132D01*
X71951866Y-91429719D01*
X71964654Y-91412476D01*
X71979070Y-91396570D01*
X71994976Y-91382154D01*
X72012219Y-91369366D01*
X72030632Y-91358330D01*
X72050038Y-91349151D01*
X72070250Y-91341919D01*
X72091074Y-91336703D01*
X72112309Y-91333553D01*
X72133750Y-91332500D01*
X72646250Y-91332500D01*
X72667691Y-91333553D01*
G37*
G36*
X72667691Y-92908553D02*
G01*
X72688926Y-92911703D01*
X72709750Y-92916919D01*
X72729962Y-92924151D01*
X72749368Y-92933330D01*
X72767781Y-92944366D01*
X72785024Y-92957154D01*
X72800930Y-92971570D01*
X72815346Y-92987476D01*
X72828134Y-93004719D01*
X72839170Y-93023132D01*
X72848349Y-93042538D01*
X72855581Y-93062750D01*
X72860797Y-93083574D01*
X72863947Y-93104809D01*
X72865000Y-93126250D01*
X72865000Y-93563750D01*
X72863947Y-93585191D01*
X72860797Y-93606426D01*
X72855581Y-93627250D01*
X72848349Y-93647462D01*
X72839170Y-93666868D01*
X72828134Y-93685281D01*
X72815346Y-93702524D01*
X72800930Y-93718430D01*
X72785024Y-93732846D01*
X72767781Y-93745634D01*
X72749368Y-93756670D01*
X72729962Y-93765849D01*
X72709750Y-93773081D01*
X72688926Y-93778297D01*
X72667691Y-93781447D01*
X72646250Y-93782500D01*
X72133750Y-93782500D01*
X72112309Y-93781447D01*
X72091074Y-93778297D01*
X72070250Y-93773081D01*
X72050038Y-93765849D01*
X72030632Y-93756670D01*
X72012219Y-93745634D01*
X71994976Y-93732846D01*
X71979070Y-93718430D01*
X71964654Y-93702524D01*
X71951866Y-93685281D01*
X71940830Y-93666868D01*
X71931651Y-93647462D01*
X71924419Y-93627250D01*
X71919203Y-93606426D01*
X71916053Y-93585191D01*
X71915000Y-93563750D01*
X71915000Y-93126250D01*
X71916053Y-93104809D01*
X71919203Y-93083574D01*
X71924419Y-93062750D01*
X71931651Y-93042538D01*
X71940830Y-93023132D01*
X71951866Y-93004719D01*
X71964654Y-92987476D01*
X71979070Y-92971570D01*
X71994976Y-92957154D01*
X72012219Y-92944366D01*
X72030632Y-92933330D01*
X72050038Y-92924151D01*
X72070250Y-92916919D01*
X72091074Y-92911703D01*
X72112309Y-92908553D01*
X72133750Y-92907500D01*
X72646250Y-92907500D01*
X72667691Y-92908553D01*
G37*
G36*
X67496958Y-86700710D02*
G01*
X67511276Y-86702834D01*
X67525317Y-86706351D01*
X67538946Y-86711228D01*
X67552031Y-86717417D01*
X67564447Y-86724858D01*
X67576073Y-86733481D01*
X67586798Y-86743202D01*
X67596519Y-86753927D01*
X67605142Y-86765553D01*
X67612583Y-86777969D01*
X67618772Y-86791054D01*
X67623649Y-86804683D01*
X67627166Y-86818724D01*
X67629290Y-86833042D01*
X67630000Y-86847500D01*
X67630000Y-87142500D01*
X67629290Y-87156958D01*
X67627166Y-87171276D01*
X67623649Y-87185317D01*
X67618772Y-87198946D01*
X67612583Y-87212031D01*
X67605142Y-87224447D01*
X67596519Y-87236073D01*
X67586798Y-87246798D01*
X67576073Y-87256519D01*
X67564447Y-87265142D01*
X67552031Y-87272583D01*
X67538946Y-87278772D01*
X67525317Y-87283649D01*
X67511276Y-87287166D01*
X67496958Y-87289290D01*
X67482500Y-87290000D01*
X67137500Y-87290000D01*
X67123042Y-87289290D01*
X67108724Y-87287166D01*
X67094683Y-87283649D01*
X67081054Y-87278772D01*
X67067969Y-87272583D01*
X67055553Y-87265142D01*
X67043927Y-87256519D01*
X67033202Y-87246798D01*
X67023481Y-87236073D01*
X67014858Y-87224447D01*
X67007417Y-87212031D01*
X67001228Y-87198946D01*
X66996351Y-87185317D01*
X66992834Y-87171276D01*
X66990710Y-87156958D01*
X66990000Y-87142500D01*
X66990000Y-86847500D01*
X66990710Y-86833042D01*
X66992834Y-86818724D01*
X66996351Y-86804683D01*
X67001228Y-86791054D01*
X67007417Y-86777969D01*
X67014858Y-86765553D01*
X67023481Y-86753927D01*
X67033202Y-86743202D01*
X67043927Y-86733481D01*
X67055553Y-86724858D01*
X67067969Y-86717417D01*
X67081054Y-86711228D01*
X67094683Y-86706351D01*
X67108724Y-86702834D01*
X67123042Y-86700710D01*
X67137500Y-86700000D01*
X67482500Y-86700000D01*
X67496958Y-86700710D01*
G37*
G36*
X67496958Y-87670710D02*
G01*
X67511276Y-87672834D01*
X67525317Y-87676351D01*
X67538946Y-87681228D01*
X67552031Y-87687417D01*
X67564447Y-87694858D01*
X67576073Y-87703481D01*
X67586798Y-87713202D01*
X67596519Y-87723927D01*
X67605142Y-87735553D01*
X67612583Y-87747969D01*
X67618772Y-87761054D01*
X67623649Y-87774683D01*
X67627166Y-87788724D01*
X67629290Y-87803042D01*
X67630000Y-87817500D01*
X67630000Y-88112500D01*
X67629290Y-88126958D01*
X67627166Y-88141276D01*
X67623649Y-88155317D01*
X67618772Y-88168946D01*
X67612583Y-88182031D01*
X67605142Y-88194447D01*
X67596519Y-88206073D01*
X67586798Y-88216798D01*
X67576073Y-88226519D01*
X67564447Y-88235142D01*
X67552031Y-88242583D01*
X67538946Y-88248772D01*
X67525317Y-88253649D01*
X67511276Y-88257166D01*
X67496958Y-88259290D01*
X67482500Y-88260000D01*
X67137500Y-88260000D01*
X67123042Y-88259290D01*
X67108724Y-88257166D01*
X67094683Y-88253649D01*
X67081054Y-88248772D01*
X67067969Y-88242583D01*
X67055553Y-88235142D01*
X67043927Y-88226519D01*
X67033202Y-88216798D01*
X67023481Y-88206073D01*
X67014858Y-88194447D01*
X67007417Y-88182031D01*
X67001228Y-88168946D01*
X66996351Y-88155317D01*
X66992834Y-88141276D01*
X66990710Y-88126958D01*
X66990000Y-88112500D01*
X66990000Y-87817500D01*
X66990710Y-87803042D01*
X66992834Y-87788724D01*
X66996351Y-87774683D01*
X67001228Y-87761054D01*
X67007417Y-87747969D01*
X67014858Y-87735553D01*
X67023481Y-87723927D01*
X67033202Y-87713202D01*
X67043927Y-87703481D01*
X67055553Y-87694858D01*
X67067969Y-87687417D01*
X67081054Y-87681228D01*
X67094683Y-87676351D01*
X67108724Y-87672834D01*
X67123042Y-87670710D01*
X67137500Y-87670000D01*
X67482500Y-87670000D01*
X67496958Y-87670710D01*
G37*
G36*
X66226958Y-86365710D02*
G01*
X66241276Y-86367834D01*
X66255317Y-86371351D01*
X66268946Y-86376228D01*
X66282031Y-86382417D01*
X66294447Y-86389858D01*
X66306073Y-86398481D01*
X66316798Y-86408202D01*
X66326519Y-86418927D01*
X66335142Y-86430553D01*
X66342583Y-86442969D01*
X66348772Y-86456054D01*
X66353649Y-86469683D01*
X66357166Y-86483724D01*
X66359290Y-86498042D01*
X66360000Y-86512500D01*
X66360000Y-86807500D01*
X66359290Y-86821958D01*
X66357166Y-86836276D01*
X66353649Y-86850317D01*
X66348772Y-86863946D01*
X66342583Y-86877031D01*
X66335142Y-86889447D01*
X66326519Y-86901073D01*
X66316798Y-86911798D01*
X66306073Y-86921519D01*
X66294447Y-86930142D01*
X66282031Y-86937583D01*
X66268946Y-86943772D01*
X66255317Y-86948649D01*
X66241276Y-86952166D01*
X66226958Y-86954290D01*
X66212500Y-86955000D01*
X65867500Y-86955000D01*
X65853042Y-86954290D01*
X65838724Y-86952166D01*
X65824683Y-86948649D01*
X65811054Y-86943772D01*
X65797969Y-86937583D01*
X65785553Y-86930142D01*
X65773927Y-86921519D01*
X65763202Y-86911798D01*
X65753481Y-86901073D01*
X65744858Y-86889447D01*
X65737417Y-86877031D01*
X65731228Y-86863946D01*
X65726351Y-86850317D01*
X65722834Y-86836276D01*
X65720710Y-86821958D01*
X65720000Y-86807500D01*
X65720000Y-86512500D01*
X65720710Y-86498042D01*
X65722834Y-86483724D01*
X65726351Y-86469683D01*
X65731228Y-86456054D01*
X65737417Y-86442969D01*
X65744858Y-86430553D01*
X65753481Y-86418927D01*
X65763202Y-86408202D01*
X65773927Y-86398481D01*
X65785553Y-86389858D01*
X65797969Y-86382417D01*
X65811054Y-86376228D01*
X65824683Y-86371351D01*
X65838724Y-86367834D01*
X65853042Y-86365710D01*
X65867500Y-86365000D01*
X66212500Y-86365000D01*
X66226958Y-86365710D01*
G37*
G36*
X66226958Y-87335710D02*
G01*
X66241276Y-87337834D01*
X66255317Y-87341351D01*
X66268946Y-87346228D01*
X66282031Y-87352417D01*
X66294447Y-87359858D01*
X66306073Y-87368481D01*
X66316798Y-87378202D01*
X66326519Y-87388927D01*
X66335142Y-87400553D01*
X66342583Y-87412969D01*
X66348772Y-87426054D01*
X66353649Y-87439683D01*
X66357166Y-87453724D01*
X66359290Y-87468042D01*
X66360000Y-87482500D01*
X66360000Y-87777500D01*
X66359290Y-87791958D01*
X66357166Y-87806276D01*
X66353649Y-87820317D01*
X66348772Y-87833946D01*
X66342583Y-87847031D01*
X66335142Y-87859447D01*
X66326519Y-87871073D01*
X66316798Y-87881798D01*
X66306073Y-87891519D01*
X66294447Y-87900142D01*
X66282031Y-87907583D01*
X66268946Y-87913772D01*
X66255317Y-87918649D01*
X66241276Y-87922166D01*
X66226958Y-87924290D01*
X66212500Y-87925000D01*
X65867500Y-87925000D01*
X65853042Y-87924290D01*
X65838724Y-87922166D01*
X65824683Y-87918649D01*
X65811054Y-87913772D01*
X65797969Y-87907583D01*
X65785553Y-87900142D01*
X65773927Y-87891519D01*
X65763202Y-87881798D01*
X65753481Y-87871073D01*
X65744858Y-87859447D01*
X65737417Y-87847031D01*
X65731228Y-87833946D01*
X65726351Y-87820317D01*
X65722834Y-87806276D01*
X65720710Y-87791958D01*
X65720000Y-87777500D01*
X65720000Y-87482500D01*
X65720710Y-87468042D01*
X65722834Y-87453724D01*
X65726351Y-87439683D01*
X65731228Y-87426054D01*
X65737417Y-87412969D01*
X65744858Y-87400553D01*
X65753481Y-87388927D01*
X65763202Y-87378202D01*
X65773927Y-87368481D01*
X65785553Y-87359858D01*
X65797969Y-87352417D01*
X65811054Y-87346228D01*
X65824683Y-87341351D01*
X65838724Y-87337834D01*
X65853042Y-87335710D01*
X65867500Y-87335000D01*
X66212500Y-87335000D01*
X66226958Y-87335710D01*
G37*
D12*
X45745000Y-92315000D03*
X45745000Y-96915000D03*
X45745000Y-94615000D03*
D13*
X52045000Y-94615000D03*
D11*
G36*
X64654703Y-73995722D02*
G01*
X64669264Y-73997882D01*
X64683543Y-74001459D01*
X64697403Y-74006418D01*
X64710710Y-74012712D01*
X64723336Y-74020280D01*
X64735159Y-74029048D01*
X64746066Y-74038934D01*
X64755952Y-74049841D01*
X64764720Y-74061664D01*
X64772288Y-74074290D01*
X64778582Y-74087597D01*
X64783541Y-74101457D01*
X64787118Y-74115736D01*
X64789278Y-74130297D01*
X64790000Y-74145000D01*
X64790000Y-74445000D01*
X64789278Y-74459703D01*
X64787118Y-74474264D01*
X64783541Y-74488543D01*
X64778582Y-74502403D01*
X64772288Y-74515710D01*
X64764720Y-74528336D01*
X64755952Y-74540159D01*
X64746066Y-74551066D01*
X64735159Y-74560952D01*
X64723336Y-74569720D01*
X64710710Y-74577288D01*
X64697403Y-74583582D01*
X64683543Y-74588541D01*
X64669264Y-74592118D01*
X64654703Y-74594278D01*
X64640000Y-74595000D01*
X63290000Y-74595000D01*
X63275297Y-74594278D01*
X63260736Y-74592118D01*
X63246457Y-74588541D01*
X63232597Y-74583582D01*
X63219290Y-74577288D01*
X63206664Y-74569720D01*
X63194841Y-74560952D01*
X63183934Y-74551066D01*
X63174048Y-74540159D01*
X63165280Y-74528336D01*
X63157712Y-74515710D01*
X63151418Y-74502403D01*
X63146459Y-74488543D01*
X63142882Y-74474264D01*
X63140722Y-74459703D01*
X63140000Y-74445000D01*
X63140000Y-74145000D01*
X63140722Y-74130297D01*
X63142882Y-74115736D01*
X63146459Y-74101457D01*
X63151418Y-74087597D01*
X63157712Y-74074290D01*
X63165280Y-74061664D01*
X63174048Y-74049841D01*
X63183934Y-74038934D01*
X63194841Y-74029048D01*
X63206664Y-74020280D01*
X63219290Y-74012712D01*
X63232597Y-74006418D01*
X63246457Y-74001459D01*
X63260736Y-73997882D01*
X63275297Y-73995722D01*
X63290000Y-73995000D01*
X64640000Y-73995000D01*
X64654703Y-73995722D01*
G37*
G36*
X64654703Y-75265722D02*
G01*
X64669264Y-75267882D01*
X64683543Y-75271459D01*
X64697403Y-75276418D01*
X64710710Y-75282712D01*
X64723336Y-75290280D01*
X64735159Y-75299048D01*
X64746066Y-75308934D01*
X64755952Y-75319841D01*
X64764720Y-75331664D01*
X64772288Y-75344290D01*
X64778582Y-75357597D01*
X64783541Y-75371457D01*
X64787118Y-75385736D01*
X64789278Y-75400297D01*
X64790000Y-75415000D01*
X64790000Y-75715000D01*
X64789278Y-75729703D01*
X64787118Y-75744264D01*
X64783541Y-75758543D01*
X64778582Y-75772403D01*
X64772288Y-75785710D01*
X64764720Y-75798336D01*
X64755952Y-75810159D01*
X64746066Y-75821066D01*
X64735159Y-75830952D01*
X64723336Y-75839720D01*
X64710710Y-75847288D01*
X64697403Y-75853582D01*
X64683543Y-75858541D01*
X64669264Y-75862118D01*
X64654703Y-75864278D01*
X64640000Y-75865000D01*
X63290000Y-75865000D01*
X63275297Y-75864278D01*
X63260736Y-75862118D01*
X63246457Y-75858541D01*
X63232597Y-75853582D01*
X63219290Y-75847288D01*
X63206664Y-75839720D01*
X63194841Y-75830952D01*
X63183934Y-75821066D01*
X63174048Y-75810159D01*
X63165280Y-75798336D01*
X63157712Y-75785710D01*
X63151418Y-75772403D01*
X63146459Y-75758543D01*
X63142882Y-75744264D01*
X63140722Y-75729703D01*
X63140000Y-75715000D01*
X63140000Y-75415000D01*
X63140722Y-75400297D01*
X63142882Y-75385736D01*
X63146459Y-75371457D01*
X63151418Y-75357597D01*
X63157712Y-75344290D01*
X63165280Y-75331664D01*
X63174048Y-75319841D01*
X63183934Y-75308934D01*
X63194841Y-75299048D01*
X63206664Y-75290280D01*
X63219290Y-75282712D01*
X63232597Y-75276418D01*
X63246457Y-75271459D01*
X63260736Y-75267882D01*
X63275297Y-75265722D01*
X63290000Y-75265000D01*
X64640000Y-75265000D01*
X64654703Y-75265722D01*
G37*
G36*
X64654703Y-76535722D02*
G01*
X64669264Y-76537882D01*
X64683543Y-76541459D01*
X64697403Y-76546418D01*
X64710710Y-76552712D01*
X64723336Y-76560280D01*
X64735159Y-76569048D01*
X64746066Y-76578934D01*
X64755952Y-76589841D01*
X64764720Y-76601664D01*
X64772288Y-76614290D01*
X64778582Y-76627597D01*
X64783541Y-76641457D01*
X64787118Y-76655736D01*
X64789278Y-76670297D01*
X64790000Y-76685000D01*
X64790000Y-76985000D01*
X64789278Y-76999703D01*
X64787118Y-77014264D01*
X64783541Y-77028543D01*
X64778582Y-77042403D01*
X64772288Y-77055710D01*
X64764720Y-77068336D01*
X64755952Y-77080159D01*
X64746066Y-77091066D01*
X64735159Y-77100952D01*
X64723336Y-77109720D01*
X64710710Y-77117288D01*
X64697403Y-77123582D01*
X64683543Y-77128541D01*
X64669264Y-77132118D01*
X64654703Y-77134278D01*
X64640000Y-77135000D01*
X63290000Y-77135000D01*
X63275297Y-77134278D01*
X63260736Y-77132118D01*
X63246457Y-77128541D01*
X63232597Y-77123582D01*
X63219290Y-77117288D01*
X63206664Y-77109720D01*
X63194841Y-77100952D01*
X63183934Y-77091066D01*
X63174048Y-77080159D01*
X63165280Y-77068336D01*
X63157712Y-77055710D01*
X63151418Y-77042403D01*
X63146459Y-77028543D01*
X63142882Y-77014264D01*
X63140722Y-76999703D01*
X63140000Y-76985000D01*
X63140000Y-76685000D01*
X63140722Y-76670297D01*
X63142882Y-76655736D01*
X63146459Y-76641457D01*
X63151418Y-76627597D01*
X63157712Y-76614290D01*
X63165280Y-76601664D01*
X63174048Y-76589841D01*
X63183934Y-76578934D01*
X63194841Y-76569048D01*
X63206664Y-76560280D01*
X63219290Y-76552712D01*
X63232597Y-76546418D01*
X63246457Y-76541459D01*
X63260736Y-76537882D01*
X63275297Y-76535722D01*
X63290000Y-76535000D01*
X64640000Y-76535000D01*
X64654703Y-76535722D01*
G37*
G36*
X64654703Y-77805722D02*
G01*
X64669264Y-77807882D01*
X64683543Y-77811459D01*
X64697403Y-77816418D01*
X64710710Y-77822712D01*
X64723336Y-77830280D01*
X64735159Y-77839048D01*
X64746066Y-77848934D01*
X64755952Y-77859841D01*
X64764720Y-77871664D01*
X64772288Y-77884290D01*
X64778582Y-77897597D01*
X64783541Y-77911457D01*
X64787118Y-77925736D01*
X64789278Y-77940297D01*
X64790000Y-77955000D01*
X64790000Y-78255000D01*
X64789278Y-78269703D01*
X64787118Y-78284264D01*
X64783541Y-78298543D01*
X64778582Y-78312403D01*
X64772288Y-78325710D01*
X64764720Y-78338336D01*
X64755952Y-78350159D01*
X64746066Y-78361066D01*
X64735159Y-78370952D01*
X64723336Y-78379720D01*
X64710710Y-78387288D01*
X64697403Y-78393582D01*
X64683543Y-78398541D01*
X64669264Y-78402118D01*
X64654703Y-78404278D01*
X64640000Y-78405000D01*
X63290000Y-78405000D01*
X63275297Y-78404278D01*
X63260736Y-78402118D01*
X63246457Y-78398541D01*
X63232597Y-78393582D01*
X63219290Y-78387288D01*
X63206664Y-78379720D01*
X63194841Y-78370952D01*
X63183934Y-78361066D01*
X63174048Y-78350159D01*
X63165280Y-78338336D01*
X63157712Y-78325710D01*
X63151418Y-78312403D01*
X63146459Y-78298543D01*
X63142882Y-78284264D01*
X63140722Y-78269703D01*
X63140000Y-78255000D01*
X63140000Y-77955000D01*
X63140722Y-77940297D01*
X63142882Y-77925736D01*
X63146459Y-77911457D01*
X63151418Y-77897597D01*
X63157712Y-77884290D01*
X63165280Y-77871664D01*
X63174048Y-77859841D01*
X63183934Y-77848934D01*
X63194841Y-77839048D01*
X63206664Y-77830280D01*
X63219290Y-77822712D01*
X63232597Y-77816418D01*
X63246457Y-77811459D01*
X63260736Y-77807882D01*
X63275297Y-77805722D01*
X63290000Y-77805000D01*
X64640000Y-77805000D01*
X64654703Y-77805722D01*
G37*
G36*
X69904703Y-77805722D02*
G01*
X69919264Y-77807882D01*
X69933543Y-77811459D01*
X69947403Y-77816418D01*
X69960710Y-77822712D01*
X69973336Y-77830280D01*
X69985159Y-77839048D01*
X69996066Y-77848934D01*
X70005952Y-77859841D01*
X70014720Y-77871664D01*
X70022288Y-77884290D01*
X70028582Y-77897597D01*
X70033541Y-77911457D01*
X70037118Y-77925736D01*
X70039278Y-77940297D01*
X70040000Y-77955000D01*
X70040000Y-78255000D01*
X70039278Y-78269703D01*
X70037118Y-78284264D01*
X70033541Y-78298543D01*
X70028582Y-78312403D01*
X70022288Y-78325710D01*
X70014720Y-78338336D01*
X70005952Y-78350159D01*
X69996066Y-78361066D01*
X69985159Y-78370952D01*
X69973336Y-78379720D01*
X69960710Y-78387288D01*
X69947403Y-78393582D01*
X69933543Y-78398541D01*
X69919264Y-78402118D01*
X69904703Y-78404278D01*
X69890000Y-78405000D01*
X68540000Y-78405000D01*
X68525297Y-78404278D01*
X68510736Y-78402118D01*
X68496457Y-78398541D01*
X68482597Y-78393582D01*
X68469290Y-78387288D01*
X68456664Y-78379720D01*
X68444841Y-78370952D01*
X68433934Y-78361066D01*
X68424048Y-78350159D01*
X68415280Y-78338336D01*
X68407712Y-78325710D01*
X68401418Y-78312403D01*
X68396459Y-78298543D01*
X68392882Y-78284264D01*
X68390722Y-78269703D01*
X68390000Y-78255000D01*
X68390000Y-77955000D01*
X68390722Y-77940297D01*
X68392882Y-77925736D01*
X68396459Y-77911457D01*
X68401418Y-77897597D01*
X68407712Y-77884290D01*
X68415280Y-77871664D01*
X68424048Y-77859841D01*
X68433934Y-77848934D01*
X68444841Y-77839048D01*
X68456664Y-77830280D01*
X68469290Y-77822712D01*
X68482597Y-77816418D01*
X68496457Y-77811459D01*
X68510736Y-77807882D01*
X68525297Y-77805722D01*
X68540000Y-77805000D01*
X69890000Y-77805000D01*
X69904703Y-77805722D01*
G37*
G36*
X69904703Y-76535722D02*
G01*
X69919264Y-76537882D01*
X69933543Y-76541459D01*
X69947403Y-76546418D01*
X69960710Y-76552712D01*
X69973336Y-76560280D01*
X69985159Y-76569048D01*
X69996066Y-76578934D01*
X70005952Y-76589841D01*
X70014720Y-76601664D01*
X70022288Y-76614290D01*
X70028582Y-76627597D01*
X70033541Y-76641457D01*
X70037118Y-76655736D01*
X70039278Y-76670297D01*
X70040000Y-76685000D01*
X70040000Y-76985000D01*
X70039278Y-76999703D01*
X70037118Y-77014264D01*
X70033541Y-77028543D01*
X70028582Y-77042403D01*
X70022288Y-77055710D01*
X70014720Y-77068336D01*
X70005952Y-77080159D01*
X69996066Y-77091066D01*
X69985159Y-77100952D01*
X69973336Y-77109720D01*
X69960710Y-77117288D01*
X69947403Y-77123582D01*
X69933543Y-77128541D01*
X69919264Y-77132118D01*
X69904703Y-77134278D01*
X69890000Y-77135000D01*
X68540000Y-77135000D01*
X68525297Y-77134278D01*
X68510736Y-77132118D01*
X68496457Y-77128541D01*
X68482597Y-77123582D01*
X68469290Y-77117288D01*
X68456664Y-77109720D01*
X68444841Y-77100952D01*
X68433934Y-77091066D01*
X68424048Y-77080159D01*
X68415280Y-77068336D01*
X68407712Y-77055710D01*
X68401418Y-77042403D01*
X68396459Y-77028543D01*
X68392882Y-77014264D01*
X68390722Y-76999703D01*
X68390000Y-76985000D01*
X68390000Y-76685000D01*
X68390722Y-76670297D01*
X68392882Y-76655736D01*
X68396459Y-76641457D01*
X68401418Y-76627597D01*
X68407712Y-76614290D01*
X68415280Y-76601664D01*
X68424048Y-76589841D01*
X68433934Y-76578934D01*
X68444841Y-76569048D01*
X68456664Y-76560280D01*
X68469290Y-76552712D01*
X68482597Y-76546418D01*
X68496457Y-76541459D01*
X68510736Y-76537882D01*
X68525297Y-76535722D01*
X68540000Y-76535000D01*
X69890000Y-76535000D01*
X69904703Y-76535722D01*
G37*
G36*
X69904703Y-75265722D02*
G01*
X69919264Y-75267882D01*
X69933543Y-75271459D01*
X69947403Y-75276418D01*
X69960710Y-75282712D01*
X69973336Y-75290280D01*
X69985159Y-75299048D01*
X69996066Y-75308934D01*
X70005952Y-75319841D01*
X70014720Y-75331664D01*
X70022288Y-75344290D01*
X70028582Y-75357597D01*
X70033541Y-75371457D01*
X70037118Y-75385736D01*
X70039278Y-75400297D01*
X70040000Y-75415000D01*
X70040000Y-75715000D01*
X70039278Y-75729703D01*
X70037118Y-75744264D01*
X70033541Y-75758543D01*
X70028582Y-75772403D01*
X70022288Y-75785710D01*
X70014720Y-75798336D01*
X70005952Y-75810159D01*
X69996066Y-75821066D01*
X69985159Y-75830952D01*
X69973336Y-75839720D01*
X69960710Y-75847288D01*
X69947403Y-75853582D01*
X69933543Y-75858541D01*
X69919264Y-75862118D01*
X69904703Y-75864278D01*
X69890000Y-75865000D01*
X68540000Y-75865000D01*
X68525297Y-75864278D01*
X68510736Y-75862118D01*
X68496457Y-75858541D01*
X68482597Y-75853582D01*
X68469290Y-75847288D01*
X68456664Y-75839720D01*
X68444841Y-75830952D01*
X68433934Y-75821066D01*
X68424048Y-75810159D01*
X68415280Y-75798336D01*
X68407712Y-75785710D01*
X68401418Y-75772403D01*
X68396459Y-75758543D01*
X68392882Y-75744264D01*
X68390722Y-75729703D01*
X68390000Y-75715000D01*
X68390000Y-75415000D01*
X68390722Y-75400297D01*
X68392882Y-75385736D01*
X68396459Y-75371457D01*
X68401418Y-75357597D01*
X68407712Y-75344290D01*
X68415280Y-75331664D01*
X68424048Y-75319841D01*
X68433934Y-75308934D01*
X68444841Y-75299048D01*
X68456664Y-75290280D01*
X68469290Y-75282712D01*
X68482597Y-75276418D01*
X68496457Y-75271459D01*
X68510736Y-75267882D01*
X68525297Y-75265722D01*
X68540000Y-75265000D01*
X69890000Y-75265000D01*
X69904703Y-75265722D01*
G37*
G36*
X69904703Y-73995722D02*
G01*
X69919264Y-73997882D01*
X69933543Y-74001459D01*
X69947403Y-74006418D01*
X69960710Y-74012712D01*
X69973336Y-74020280D01*
X69985159Y-74029048D01*
X69996066Y-74038934D01*
X70005952Y-74049841D01*
X70014720Y-74061664D01*
X70022288Y-74074290D01*
X70028582Y-74087597D01*
X70033541Y-74101457D01*
X70037118Y-74115736D01*
X70039278Y-74130297D01*
X70040000Y-74145000D01*
X70040000Y-74445000D01*
X70039278Y-74459703D01*
X70037118Y-74474264D01*
X70033541Y-74488543D01*
X70028582Y-74502403D01*
X70022288Y-74515710D01*
X70014720Y-74528336D01*
X70005952Y-74540159D01*
X69996066Y-74551066D01*
X69985159Y-74560952D01*
X69973336Y-74569720D01*
X69960710Y-74577288D01*
X69947403Y-74583582D01*
X69933543Y-74588541D01*
X69919264Y-74592118D01*
X69904703Y-74594278D01*
X69890000Y-74595000D01*
X68540000Y-74595000D01*
X68525297Y-74594278D01*
X68510736Y-74592118D01*
X68496457Y-74588541D01*
X68482597Y-74583582D01*
X68469290Y-74577288D01*
X68456664Y-74569720D01*
X68444841Y-74560952D01*
X68433934Y-74551066D01*
X68424048Y-74540159D01*
X68415280Y-74528336D01*
X68407712Y-74515710D01*
X68401418Y-74502403D01*
X68396459Y-74488543D01*
X68392882Y-74474264D01*
X68390722Y-74459703D01*
X68390000Y-74445000D01*
X68390000Y-74145000D01*
X68390722Y-74130297D01*
X68392882Y-74115736D01*
X68396459Y-74101457D01*
X68401418Y-74087597D01*
X68407712Y-74074290D01*
X68415280Y-74061664D01*
X68424048Y-74049841D01*
X68433934Y-74038934D01*
X68444841Y-74029048D01*
X68456664Y-74020280D01*
X68469290Y-74012712D01*
X68482597Y-74006418D01*
X68496457Y-74001459D01*
X68510736Y-73997882D01*
X68525297Y-73995722D01*
X68540000Y-73995000D01*
X69890000Y-73995000D01*
X69904703Y-73995722D01*
G37*
G36*
X72667691Y-77668553D02*
G01*
X72688926Y-77671703D01*
X72709750Y-77676919D01*
X72729962Y-77684151D01*
X72749368Y-77693330D01*
X72767781Y-77704366D01*
X72785024Y-77717154D01*
X72800930Y-77731570D01*
X72815346Y-77747476D01*
X72828134Y-77764719D01*
X72839170Y-77783132D01*
X72848349Y-77802538D01*
X72855581Y-77822750D01*
X72860797Y-77843574D01*
X72863947Y-77864809D01*
X72865000Y-77886250D01*
X72865000Y-78323750D01*
X72863947Y-78345191D01*
X72860797Y-78366426D01*
X72855581Y-78387250D01*
X72848349Y-78407462D01*
X72839170Y-78426868D01*
X72828134Y-78445281D01*
X72815346Y-78462524D01*
X72800930Y-78478430D01*
X72785024Y-78492846D01*
X72767781Y-78505634D01*
X72749368Y-78516670D01*
X72729962Y-78525849D01*
X72709750Y-78533081D01*
X72688926Y-78538297D01*
X72667691Y-78541447D01*
X72646250Y-78542500D01*
X72133750Y-78542500D01*
X72112309Y-78541447D01*
X72091074Y-78538297D01*
X72070250Y-78533081D01*
X72050038Y-78525849D01*
X72030632Y-78516670D01*
X72012219Y-78505634D01*
X71994976Y-78492846D01*
X71979070Y-78478430D01*
X71964654Y-78462524D01*
X71951866Y-78445281D01*
X71940830Y-78426868D01*
X71931651Y-78407462D01*
X71924419Y-78387250D01*
X71919203Y-78366426D01*
X71916053Y-78345191D01*
X71915000Y-78323750D01*
X71915000Y-77886250D01*
X71916053Y-77864809D01*
X71919203Y-77843574D01*
X71924419Y-77822750D01*
X71931651Y-77802538D01*
X71940830Y-77783132D01*
X71951866Y-77764719D01*
X71964654Y-77747476D01*
X71979070Y-77731570D01*
X71994976Y-77717154D01*
X72012219Y-77704366D01*
X72030632Y-77693330D01*
X72050038Y-77684151D01*
X72070250Y-77676919D01*
X72091074Y-77671703D01*
X72112309Y-77668553D01*
X72133750Y-77667500D01*
X72646250Y-77667500D01*
X72667691Y-77668553D01*
G37*
G36*
X72667691Y-76093553D02*
G01*
X72688926Y-76096703D01*
X72709750Y-76101919D01*
X72729962Y-76109151D01*
X72749368Y-76118330D01*
X72767781Y-76129366D01*
X72785024Y-76142154D01*
X72800930Y-76156570D01*
X72815346Y-76172476D01*
X72828134Y-76189719D01*
X72839170Y-76208132D01*
X72848349Y-76227538D01*
X72855581Y-76247750D01*
X72860797Y-76268574D01*
X72863947Y-76289809D01*
X72865000Y-76311250D01*
X72865000Y-76748750D01*
X72863947Y-76770191D01*
X72860797Y-76791426D01*
X72855581Y-76812250D01*
X72848349Y-76832462D01*
X72839170Y-76851868D01*
X72828134Y-76870281D01*
X72815346Y-76887524D01*
X72800930Y-76903430D01*
X72785024Y-76917846D01*
X72767781Y-76930634D01*
X72749368Y-76941670D01*
X72729962Y-76950849D01*
X72709750Y-76958081D01*
X72688926Y-76963297D01*
X72667691Y-76966447D01*
X72646250Y-76967500D01*
X72133750Y-76967500D01*
X72112309Y-76966447D01*
X72091074Y-76963297D01*
X72070250Y-76958081D01*
X72050038Y-76950849D01*
X72030632Y-76941670D01*
X72012219Y-76930634D01*
X71994976Y-76917846D01*
X71979070Y-76903430D01*
X71964654Y-76887524D01*
X71951866Y-76870281D01*
X71940830Y-76851868D01*
X71931651Y-76832462D01*
X71924419Y-76812250D01*
X71919203Y-76791426D01*
X71916053Y-76770191D01*
X71915000Y-76748750D01*
X71915000Y-76311250D01*
X71916053Y-76289809D01*
X71919203Y-76268574D01*
X71924419Y-76247750D01*
X71931651Y-76227538D01*
X71940830Y-76208132D01*
X71951866Y-76189719D01*
X71964654Y-76172476D01*
X71979070Y-76156570D01*
X71994976Y-76142154D01*
X72012219Y-76129366D01*
X72030632Y-76118330D01*
X72050038Y-76109151D01*
X72070250Y-76101919D01*
X72091074Y-76096703D01*
X72112309Y-76093553D01*
X72133750Y-76092500D01*
X72646250Y-76092500D01*
X72667691Y-76093553D01*
G37*
G36*
X67496958Y-72430710D02*
G01*
X67511276Y-72432834D01*
X67525317Y-72436351D01*
X67538946Y-72441228D01*
X67552031Y-72447417D01*
X67564447Y-72454858D01*
X67576073Y-72463481D01*
X67586798Y-72473202D01*
X67596519Y-72483927D01*
X67605142Y-72495553D01*
X67612583Y-72507969D01*
X67618772Y-72521054D01*
X67623649Y-72534683D01*
X67627166Y-72548724D01*
X67629290Y-72563042D01*
X67630000Y-72577500D01*
X67630000Y-72872500D01*
X67629290Y-72886958D01*
X67627166Y-72901276D01*
X67623649Y-72915317D01*
X67618772Y-72928946D01*
X67612583Y-72942031D01*
X67605142Y-72954447D01*
X67596519Y-72966073D01*
X67586798Y-72976798D01*
X67576073Y-72986519D01*
X67564447Y-72995142D01*
X67552031Y-73002583D01*
X67538946Y-73008772D01*
X67525317Y-73013649D01*
X67511276Y-73017166D01*
X67496958Y-73019290D01*
X67482500Y-73020000D01*
X67137500Y-73020000D01*
X67123042Y-73019290D01*
X67108724Y-73017166D01*
X67094683Y-73013649D01*
X67081054Y-73008772D01*
X67067969Y-73002583D01*
X67055553Y-72995142D01*
X67043927Y-72986519D01*
X67033202Y-72976798D01*
X67023481Y-72966073D01*
X67014858Y-72954447D01*
X67007417Y-72942031D01*
X67001228Y-72928946D01*
X66996351Y-72915317D01*
X66992834Y-72901276D01*
X66990710Y-72886958D01*
X66990000Y-72872500D01*
X66990000Y-72577500D01*
X66990710Y-72563042D01*
X66992834Y-72548724D01*
X66996351Y-72534683D01*
X67001228Y-72521054D01*
X67007417Y-72507969D01*
X67014858Y-72495553D01*
X67023481Y-72483927D01*
X67033202Y-72473202D01*
X67043927Y-72463481D01*
X67055553Y-72454858D01*
X67067969Y-72447417D01*
X67081054Y-72441228D01*
X67094683Y-72436351D01*
X67108724Y-72432834D01*
X67123042Y-72430710D01*
X67137500Y-72430000D01*
X67482500Y-72430000D01*
X67496958Y-72430710D01*
G37*
G36*
X67496958Y-71460710D02*
G01*
X67511276Y-71462834D01*
X67525317Y-71466351D01*
X67538946Y-71471228D01*
X67552031Y-71477417D01*
X67564447Y-71484858D01*
X67576073Y-71493481D01*
X67586798Y-71503202D01*
X67596519Y-71513927D01*
X67605142Y-71525553D01*
X67612583Y-71537969D01*
X67618772Y-71551054D01*
X67623649Y-71564683D01*
X67627166Y-71578724D01*
X67629290Y-71593042D01*
X67630000Y-71607500D01*
X67630000Y-71902500D01*
X67629290Y-71916958D01*
X67627166Y-71931276D01*
X67623649Y-71945317D01*
X67618772Y-71958946D01*
X67612583Y-71972031D01*
X67605142Y-71984447D01*
X67596519Y-71996073D01*
X67586798Y-72006798D01*
X67576073Y-72016519D01*
X67564447Y-72025142D01*
X67552031Y-72032583D01*
X67538946Y-72038772D01*
X67525317Y-72043649D01*
X67511276Y-72047166D01*
X67496958Y-72049290D01*
X67482500Y-72050000D01*
X67137500Y-72050000D01*
X67123042Y-72049290D01*
X67108724Y-72047166D01*
X67094683Y-72043649D01*
X67081054Y-72038772D01*
X67067969Y-72032583D01*
X67055553Y-72025142D01*
X67043927Y-72016519D01*
X67033202Y-72006798D01*
X67023481Y-71996073D01*
X67014858Y-71984447D01*
X67007417Y-71972031D01*
X67001228Y-71958946D01*
X66996351Y-71945317D01*
X66992834Y-71931276D01*
X66990710Y-71916958D01*
X66990000Y-71902500D01*
X66990000Y-71607500D01*
X66990710Y-71593042D01*
X66992834Y-71578724D01*
X66996351Y-71564683D01*
X67001228Y-71551054D01*
X67007417Y-71537969D01*
X67014858Y-71525553D01*
X67023481Y-71513927D01*
X67033202Y-71503202D01*
X67043927Y-71493481D01*
X67055553Y-71484858D01*
X67067969Y-71477417D01*
X67081054Y-71471228D01*
X67094683Y-71466351D01*
X67108724Y-71462834D01*
X67123042Y-71460710D01*
X67137500Y-71460000D01*
X67482500Y-71460000D01*
X67496958Y-71460710D01*
G37*
G36*
X66226958Y-72095710D02*
G01*
X66241276Y-72097834D01*
X66255317Y-72101351D01*
X66268946Y-72106228D01*
X66282031Y-72112417D01*
X66294447Y-72119858D01*
X66306073Y-72128481D01*
X66316798Y-72138202D01*
X66326519Y-72148927D01*
X66335142Y-72160553D01*
X66342583Y-72172969D01*
X66348772Y-72186054D01*
X66353649Y-72199683D01*
X66357166Y-72213724D01*
X66359290Y-72228042D01*
X66360000Y-72242500D01*
X66360000Y-72537500D01*
X66359290Y-72551958D01*
X66357166Y-72566276D01*
X66353649Y-72580317D01*
X66348772Y-72593946D01*
X66342583Y-72607031D01*
X66335142Y-72619447D01*
X66326519Y-72631073D01*
X66316798Y-72641798D01*
X66306073Y-72651519D01*
X66294447Y-72660142D01*
X66282031Y-72667583D01*
X66268946Y-72673772D01*
X66255317Y-72678649D01*
X66241276Y-72682166D01*
X66226958Y-72684290D01*
X66212500Y-72685000D01*
X65867500Y-72685000D01*
X65853042Y-72684290D01*
X65838724Y-72682166D01*
X65824683Y-72678649D01*
X65811054Y-72673772D01*
X65797969Y-72667583D01*
X65785553Y-72660142D01*
X65773927Y-72651519D01*
X65763202Y-72641798D01*
X65753481Y-72631073D01*
X65744858Y-72619447D01*
X65737417Y-72607031D01*
X65731228Y-72593946D01*
X65726351Y-72580317D01*
X65722834Y-72566276D01*
X65720710Y-72551958D01*
X65720000Y-72537500D01*
X65720000Y-72242500D01*
X65720710Y-72228042D01*
X65722834Y-72213724D01*
X65726351Y-72199683D01*
X65731228Y-72186054D01*
X65737417Y-72172969D01*
X65744858Y-72160553D01*
X65753481Y-72148927D01*
X65763202Y-72138202D01*
X65773927Y-72128481D01*
X65785553Y-72119858D01*
X65797969Y-72112417D01*
X65811054Y-72106228D01*
X65824683Y-72101351D01*
X65838724Y-72097834D01*
X65853042Y-72095710D01*
X65867500Y-72095000D01*
X66212500Y-72095000D01*
X66226958Y-72095710D01*
G37*
G36*
X66226958Y-71125710D02*
G01*
X66241276Y-71127834D01*
X66255317Y-71131351D01*
X66268946Y-71136228D01*
X66282031Y-71142417D01*
X66294447Y-71149858D01*
X66306073Y-71158481D01*
X66316798Y-71168202D01*
X66326519Y-71178927D01*
X66335142Y-71190553D01*
X66342583Y-71202969D01*
X66348772Y-71216054D01*
X66353649Y-71229683D01*
X66357166Y-71243724D01*
X66359290Y-71258042D01*
X66360000Y-71272500D01*
X66360000Y-71567500D01*
X66359290Y-71581958D01*
X66357166Y-71596276D01*
X66353649Y-71610317D01*
X66348772Y-71623946D01*
X66342583Y-71637031D01*
X66335142Y-71649447D01*
X66326519Y-71661073D01*
X66316798Y-71671798D01*
X66306073Y-71681519D01*
X66294447Y-71690142D01*
X66282031Y-71697583D01*
X66268946Y-71703772D01*
X66255317Y-71708649D01*
X66241276Y-71712166D01*
X66226958Y-71714290D01*
X66212500Y-71715000D01*
X65867500Y-71715000D01*
X65853042Y-71714290D01*
X65838724Y-71712166D01*
X65824683Y-71708649D01*
X65811054Y-71703772D01*
X65797969Y-71697583D01*
X65785553Y-71690142D01*
X65773927Y-71681519D01*
X65763202Y-71671798D01*
X65753481Y-71661073D01*
X65744858Y-71649447D01*
X65737417Y-71637031D01*
X65731228Y-71623946D01*
X65726351Y-71610317D01*
X65722834Y-71596276D01*
X65720710Y-71581958D01*
X65720000Y-71567500D01*
X65720000Y-71272500D01*
X65720710Y-71258042D01*
X65722834Y-71243724D01*
X65726351Y-71229683D01*
X65731228Y-71216054D01*
X65737417Y-71202969D01*
X65744858Y-71190553D01*
X65753481Y-71178927D01*
X65763202Y-71168202D01*
X65773927Y-71158481D01*
X65785553Y-71149858D01*
X65797969Y-71142417D01*
X65811054Y-71136228D01*
X65824683Y-71131351D01*
X65838724Y-71127834D01*
X65853042Y-71125710D01*
X65867500Y-71125000D01*
X66212500Y-71125000D01*
X66226958Y-71125710D01*
G37*
G36*
X62075142Y-74413674D02*
G01*
X62098803Y-74417184D01*
X62122007Y-74422996D01*
X62144529Y-74431054D01*
X62166153Y-74441282D01*
X62186670Y-74453579D01*
X62205883Y-74467829D01*
X62223607Y-74483893D01*
X62239671Y-74501617D01*
X62253921Y-74520830D01*
X62266218Y-74541347D01*
X62276446Y-74562971D01*
X62284504Y-74585493D01*
X62290316Y-74608697D01*
X62293826Y-74632358D01*
X62295000Y-74656250D01*
X62295000Y-75143750D01*
X62293826Y-75167642D01*
X62290316Y-75191303D01*
X62284504Y-75214507D01*
X62276446Y-75237029D01*
X62266218Y-75258653D01*
X62253921Y-75279170D01*
X62239671Y-75298383D01*
X62223607Y-75316107D01*
X62205883Y-75332171D01*
X62186670Y-75346421D01*
X62166153Y-75358718D01*
X62144529Y-75368946D01*
X62122007Y-75377004D01*
X62098803Y-75382816D01*
X62075142Y-75386326D01*
X62051250Y-75387500D01*
X61138750Y-75387500D01*
X61114858Y-75386326D01*
X61091197Y-75382816D01*
X61067993Y-75377004D01*
X61045471Y-75368946D01*
X61023847Y-75358718D01*
X61003330Y-75346421D01*
X60984117Y-75332171D01*
X60966393Y-75316107D01*
X60950329Y-75298383D01*
X60936079Y-75279170D01*
X60923782Y-75258653D01*
X60913554Y-75237029D01*
X60905496Y-75214507D01*
X60899684Y-75191303D01*
X60896174Y-75167642D01*
X60895000Y-75143750D01*
X60895000Y-74656250D01*
X60896174Y-74632358D01*
X60899684Y-74608697D01*
X60905496Y-74585493D01*
X60913554Y-74562971D01*
X60923782Y-74541347D01*
X60936079Y-74520830D01*
X60950329Y-74501617D01*
X60966393Y-74483893D01*
X60984117Y-74467829D01*
X61003330Y-74453579D01*
X61023847Y-74441282D01*
X61045471Y-74431054D01*
X61067993Y-74422996D01*
X61091197Y-74417184D01*
X61114858Y-74413674D01*
X61138750Y-74412500D01*
X62051250Y-74412500D01*
X62075142Y-74413674D01*
G37*
G36*
X62075142Y-72538674D02*
G01*
X62098803Y-72542184D01*
X62122007Y-72547996D01*
X62144529Y-72556054D01*
X62166153Y-72566282D01*
X62186670Y-72578579D01*
X62205883Y-72592829D01*
X62223607Y-72608893D01*
X62239671Y-72626617D01*
X62253921Y-72645830D01*
X62266218Y-72666347D01*
X62276446Y-72687971D01*
X62284504Y-72710493D01*
X62290316Y-72733697D01*
X62293826Y-72757358D01*
X62295000Y-72781250D01*
X62295000Y-73268750D01*
X62293826Y-73292642D01*
X62290316Y-73316303D01*
X62284504Y-73339507D01*
X62276446Y-73362029D01*
X62266218Y-73383653D01*
X62253921Y-73404170D01*
X62239671Y-73423383D01*
X62223607Y-73441107D01*
X62205883Y-73457171D01*
X62186670Y-73471421D01*
X62166153Y-73483718D01*
X62144529Y-73493946D01*
X62122007Y-73502004D01*
X62098803Y-73507816D01*
X62075142Y-73511326D01*
X62051250Y-73512500D01*
X61138750Y-73512500D01*
X61114858Y-73511326D01*
X61091197Y-73507816D01*
X61067993Y-73502004D01*
X61045471Y-73493946D01*
X61023847Y-73483718D01*
X61003330Y-73471421D01*
X60984117Y-73457171D01*
X60966393Y-73441107D01*
X60950329Y-73423383D01*
X60936079Y-73404170D01*
X60923782Y-73383653D01*
X60913554Y-73362029D01*
X60905496Y-73339507D01*
X60899684Y-73316303D01*
X60896174Y-73292642D01*
X60895000Y-73268750D01*
X60895000Y-72781250D01*
X60896174Y-72757358D01*
X60899684Y-72733697D01*
X60905496Y-72710493D01*
X60913554Y-72687971D01*
X60923782Y-72666347D01*
X60936079Y-72645830D01*
X60950329Y-72626617D01*
X60966393Y-72608893D01*
X60984117Y-72592829D01*
X61003330Y-72578579D01*
X61023847Y-72566282D01*
X61045471Y-72556054D01*
X61067993Y-72547996D01*
X61091197Y-72542184D01*
X61114858Y-72538674D01*
X61138750Y-72537500D01*
X62051250Y-72537500D01*
X62075142Y-72538674D01*
G37*
D13*
X52045000Y-79375000D03*
D12*
X45745000Y-79375000D03*
X45745000Y-81675000D03*
X45745000Y-77075000D03*
D13*
X88240000Y-94615000D03*
D12*
X81940000Y-94615000D03*
X81940000Y-96915000D03*
X81940000Y-92315000D03*
D11*
G36*
X102421958Y-87335710D02*
G01*
X102436276Y-87337834D01*
X102450317Y-87341351D01*
X102463946Y-87346228D01*
X102477031Y-87352417D01*
X102489447Y-87359858D01*
X102501073Y-87368481D01*
X102511798Y-87378202D01*
X102521519Y-87388927D01*
X102530142Y-87400553D01*
X102537583Y-87412969D01*
X102543772Y-87426054D01*
X102548649Y-87439683D01*
X102552166Y-87453724D01*
X102554290Y-87468042D01*
X102555000Y-87482500D01*
X102555000Y-87777500D01*
X102554290Y-87791958D01*
X102552166Y-87806276D01*
X102548649Y-87820317D01*
X102543772Y-87833946D01*
X102537583Y-87847031D01*
X102530142Y-87859447D01*
X102521519Y-87871073D01*
X102511798Y-87881798D01*
X102501073Y-87891519D01*
X102489447Y-87900142D01*
X102477031Y-87907583D01*
X102463946Y-87913772D01*
X102450317Y-87918649D01*
X102436276Y-87922166D01*
X102421958Y-87924290D01*
X102407500Y-87925000D01*
X102062500Y-87925000D01*
X102048042Y-87924290D01*
X102033724Y-87922166D01*
X102019683Y-87918649D01*
X102006054Y-87913772D01*
X101992969Y-87907583D01*
X101980553Y-87900142D01*
X101968927Y-87891519D01*
X101958202Y-87881798D01*
X101948481Y-87871073D01*
X101939858Y-87859447D01*
X101932417Y-87847031D01*
X101926228Y-87833946D01*
X101921351Y-87820317D01*
X101917834Y-87806276D01*
X101915710Y-87791958D01*
X101915000Y-87777500D01*
X101915000Y-87482500D01*
X101915710Y-87468042D01*
X101917834Y-87453724D01*
X101921351Y-87439683D01*
X101926228Y-87426054D01*
X101932417Y-87412969D01*
X101939858Y-87400553D01*
X101948481Y-87388927D01*
X101958202Y-87378202D01*
X101968927Y-87368481D01*
X101980553Y-87359858D01*
X101992969Y-87352417D01*
X102006054Y-87346228D01*
X102019683Y-87341351D01*
X102033724Y-87337834D01*
X102048042Y-87335710D01*
X102062500Y-87335000D01*
X102407500Y-87335000D01*
X102421958Y-87335710D01*
G37*
G36*
X102421958Y-86365710D02*
G01*
X102436276Y-86367834D01*
X102450317Y-86371351D01*
X102463946Y-86376228D01*
X102477031Y-86382417D01*
X102489447Y-86389858D01*
X102501073Y-86398481D01*
X102511798Y-86408202D01*
X102521519Y-86418927D01*
X102530142Y-86430553D01*
X102537583Y-86442969D01*
X102543772Y-86456054D01*
X102548649Y-86469683D01*
X102552166Y-86483724D01*
X102554290Y-86498042D01*
X102555000Y-86512500D01*
X102555000Y-86807500D01*
X102554290Y-86821958D01*
X102552166Y-86836276D01*
X102548649Y-86850317D01*
X102543772Y-86863946D01*
X102537583Y-86877031D01*
X102530142Y-86889447D01*
X102521519Y-86901073D01*
X102511798Y-86911798D01*
X102501073Y-86921519D01*
X102489447Y-86930142D01*
X102477031Y-86937583D01*
X102463946Y-86943772D01*
X102450317Y-86948649D01*
X102436276Y-86952166D01*
X102421958Y-86954290D01*
X102407500Y-86955000D01*
X102062500Y-86955000D01*
X102048042Y-86954290D01*
X102033724Y-86952166D01*
X102019683Y-86948649D01*
X102006054Y-86943772D01*
X101992969Y-86937583D01*
X101980553Y-86930142D01*
X101968927Y-86921519D01*
X101958202Y-86911798D01*
X101948481Y-86901073D01*
X101939858Y-86889447D01*
X101932417Y-86877031D01*
X101926228Y-86863946D01*
X101921351Y-86850317D01*
X101917834Y-86836276D01*
X101915710Y-86821958D01*
X101915000Y-86807500D01*
X101915000Y-86512500D01*
X101915710Y-86498042D01*
X101917834Y-86483724D01*
X101921351Y-86469683D01*
X101926228Y-86456054D01*
X101932417Y-86442969D01*
X101939858Y-86430553D01*
X101948481Y-86418927D01*
X101958202Y-86408202D01*
X101968927Y-86398481D01*
X101980553Y-86389858D01*
X101992969Y-86382417D01*
X102006054Y-86376228D01*
X102019683Y-86371351D01*
X102033724Y-86367834D01*
X102048042Y-86365710D01*
X102062500Y-86365000D01*
X102407500Y-86365000D01*
X102421958Y-86365710D01*
G37*
G36*
X103691958Y-87670710D02*
G01*
X103706276Y-87672834D01*
X103720317Y-87676351D01*
X103733946Y-87681228D01*
X103747031Y-87687417D01*
X103759447Y-87694858D01*
X103771073Y-87703481D01*
X103781798Y-87713202D01*
X103791519Y-87723927D01*
X103800142Y-87735553D01*
X103807583Y-87747969D01*
X103813772Y-87761054D01*
X103818649Y-87774683D01*
X103822166Y-87788724D01*
X103824290Y-87803042D01*
X103825000Y-87817500D01*
X103825000Y-88112500D01*
X103824290Y-88126958D01*
X103822166Y-88141276D01*
X103818649Y-88155317D01*
X103813772Y-88168946D01*
X103807583Y-88182031D01*
X103800142Y-88194447D01*
X103791519Y-88206073D01*
X103781798Y-88216798D01*
X103771073Y-88226519D01*
X103759447Y-88235142D01*
X103747031Y-88242583D01*
X103733946Y-88248772D01*
X103720317Y-88253649D01*
X103706276Y-88257166D01*
X103691958Y-88259290D01*
X103677500Y-88260000D01*
X103332500Y-88260000D01*
X103318042Y-88259290D01*
X103303724Y-88257166D01*
X103289683Y-88253649D01*
X103276054Y-88248772D01*
X103262969Y-88242583D01*
X103250553Y-88235142D01*
X103238927Y-88226519D01*
X103228202Y-88216798D01*
X103218481Y-88206073D01*
X103209858Y-88194447D01*
X103202417Y-88182031D01*
X103196228Y-88168946D01*
X103191351Y-88155317D01*
X103187834Y-88141276D01*
X103185710Y-88126958D01*
X103185000Y-88112500D01*
X103185000Y-87817500D01*
X103185710Y-87803042D01*
X103187834Y-87788724D01*
X103191351Y-87774683D01*
X103196228Y-87761054D01*
X103202417Y-87747969D01*
X103209858Y-87735553D01*
X103218481Y-87723927D01*
X103228202Y-87713202D01*
X103238927Y-87703481D01*
X103250553Y-87694858D01*
X103262969Y-87687417D01*
X103276054Y-87681228D01*
X103289683Y-87676351D01*
X103303724Y-87672834D01*
X103318042Y-87670710D01*
X103332500Y-87670000D01*
X103677500Y-87670000D01*
X103691958Y-87670710D01*
G37*
G36*
X103691958Y-86700710D02*
G01*
X103706276Y-86702834D01*
X103720317Y-86706351D01*
X103733946Y-86711228D01*
X103747031Y-86717417D01*
X103759447Y-86724858D01*
X103771073Y-86733481D01*
X103781798Y-86743202D01*
X103791519Y-86753927D01*
X103800142Y-86765553D01*
X103807583Y-86777969D01*
X103813772Y-86791054D01*
X103818649Y-86804683D01*
X103822166Y-86818724D01*
X103824290Y-86833042D01*
X103825000Y-86847500D01*
X103825000Y-87142500D01*
X103824290Y-87156958D01*
X103822166Y-87171276D01*
X103818649Y-87185317D01*
X103813772Y-87198946D01*
X103807583Y-87212031D01*
X103800142Y-87224447D01*
X103791519Y-87236073D01*
X103781798Y-87246798D01*
X103771073Y-87256519D01*
X103759447Y-87265142D01*
X103747031Y-87272583D01*
X103733946Y-87278772D01*
X103720317Y-87283649D01*
X103706276Y-87287166D01*
X103691958Y-87289290D01*
X103677500Y-87290000D01*
X103332500Y-87290000D01*
X103318042Y-87289290D01*
X103303724Y-87287166D01*
X103289683Y-87283649D01*
X103276054Y-87278772D01*
X103262969Y-87272583D01*
X103250553Y-87265142D01*
X103238927Y-87256519D01*
X103228202Y-87246798D01*
X103218481Y-87236073D01*
X103209858Y-87224447D01*
X103202417Y-87212031D01*
X103196228Y-87198946D01*
X103191351Y-87185317D01*
X103187834Y-87171276D01*
X103185710Y-87156958D01*
X103185000Y-87142500D01*
X103185000Y-86847500D01*
X103185710Y-86833042D01*
X103187834Y-86818724D01*
X103191351Y-86804683D01*
X103196228Y-86791054D01*
X103202417Y-86777969D01*
X103209858Y-86765553D01*
X103218481Y-86753927D01*
X103228202Y-86743202D01*
X103238927Y-86733481D01*
X103250553Y-86724858D01*
X103262969Y-86717417D01*
X103276054Y-86711228D01*
X103289683Y-86706351D01*
X103303724Y-86702834D01*
X103318042Y-86700710D01*
X103332500Y-86700000D01*
X103677500Y-86700000D01*
X103691958Y-86700710D01*
G37*
G36*
X108862691Y-92908553D02*
G01*
X108883926Y-92911703D01*
X108904750Y-92916919D01*
X108924962Y-92924151D01*
X108944368Y-92933330D01*
X108962781Y-92944366D01*
X108980024Y-92957154D01*
X108995930Y-92971570D01*
X109010346Y-92987476D01*
X109023134Y-93004719D01*
X109034170Y-93023132D01*
X109043349Y-93042538D01*
X109050581Y-93062750D01*
X109055797Y-93083574D01*
X109058947Y-93104809D01*
X109060000Y-93126250D01*
X109060000Y-93563750D01*
X109058947Y-93585191D01*
X109055797Y-93606426D01*
X109050581Y-93627250D01*
X109043349Y-93647462D01*
X109034170Y-93666868D01*
X109023134Y-93685281D01*
X109010346Y-93702524D01*
X108995930Y-93718430D01*
X108980024Y-93732846D01*
X108962781Y-93745634D01*
X108944368Y-93756670D01*
X108924962Y-93765849D01*
X108904750Y-93773081D01*
X108883926Y-93778297D01*
X108862691Y-93781447D01*
X108841250Y-93782500D01*
X108328750Y-93782500D01*
X108307309Y-93781447D01*
X108286074Y-93778297D01*
X108265250Y-93773081D01*
X108245038Y-93765849D01*
X108225632Y-93756670D01*
X108207219Y-93745634D01*
X108189976Y-93732846D01*
X108174070Y-93718430D01*
X108159654Y-93702524D01*
X108146866Y-93685281D01*
X108135830Y-93666868D01*
X108126651Y-93647462D01*
X108119419Y-93627250D01*
X108114203Y-93606426D01*
X108111053Y-93585191D01*
X108110000Y-93563750D01*
X108110000Y-93126250D01*
X108111053Y-93104809D01*
X108114203Y-93083574D01*
X108119419Y-93062750D01*
X108126651Y-93042538D01*
X108135830Y-93023132D01*
X108146866Y-93004719D01*
X108159654Y-92987476D01*
X108174070Y-92971570D01*
X108189976Y-92957154D01*
X108207219Y-92944366D01*
X108225632Y-92933330D01*
X108245038Y-92924151D01*
X108265250Y-92916919D01*
X108286074Y-92911703D01*
X108307309Y-92908553D01*
X108328750Y-92907500D01*
X108841250Y-92907500D01*
X108862691Y-92908553D01*
G37*
G36*
X108862691Y-91333553D02*
G01*
X108883926Y-91336703D01*
X108904750Y-91341919D01*
X108924962Y-91349151D01*
X108944368Y-91358330D01*
X108962781Y-91369366D01*
X108980024Y-91382154D01*
X108995930Y-91396570D01*
X109010346Y-91412476D01*
X109023134Y-91429719D01*
X109034170Y-91448132D01*
X109043349Y-91467538D01*
X109050581Y-91487750D01*
X109055797Y-91508574D01*
X109058947Y-91529809D01*
X109060000Y-91551250D01*
X109060000Y-91988750D01*
X109058947Y-92010191D01*
X109055797Y-92031426D01*
X109050581Y-92052250D01*
X109043349Y-92072462D01*
X109034170Y-92091868D01*
X109023134Y-92110281D01*
X109010346Y-92127524D01*
X108995930Y-92143430D01*
X108980024Y-92157846D01*
X108962781Y-92170634D01*
X108944368Y-92181670D01*
X108924962Y-92190849D01*
X108904750Y-92198081D01*
X108883926Y-92203297D01*
X108862691Y-92206447D01*
X108841250Y-92207500D01*
X108328750Y-92207500D01*
X108307309Y-92206447D01*
X108286074Y-92203297D01*
X108265250Y-92198081D01*
X108245038Y-92190849D01*
X108225632Y-92181670D01*
X108207219Y-92170634D01*
X108189976Y-92157846D01*
X108174070Y-92143430D01*
X108159654Y-92127524D01*
X108146866Y-92110281D01*
X108135830Y-92091868D01*
X108126651Y-92072462D01*
X108119419Y-92052250D01*
X108114203Y-92031426D01*
X108111053Y-92010191D01*
X108110000Y-91988750D01*
X108110000Y-91551250D01*
X108111053Y-91529809D01*
X108114203Y-91508574D01*
X108119419Y-91487750D01*
X108126651Y-91467538D01*
X108135830Y-91448132D01*
X108146866Y-91429719D01*
X108159654Y-91412476D01*
X108174070Y-91396570D01*
X108189976Y-91382154D01*
X108207219Y-91369366D01*
X108225632Y-91358330D01*
X108245038Y-91349151D01*
X108265250Y-91341919D01*
X108286074Y-91336703D01*
X108307309Y-91333553D01*
X108328750Y-91332500D01*
X108841250Y-91332500D01*
X108862691Y-91333553D01*
G37*
G36*
X100849703Y-89235722D02*
G01*
X100864264Y-89237882D01*
X100878543Y-89241459D01*
X100892403Y-89246418D01*
X100905710Y-89252712D01*
X100918336Y-89260280D01*
X100930159Y-89269048D01*
X100941066Y-89278934D01*
X100950952Y-89289841D01*
X100959720Y-89301664D01*
X100967288Y-89314290D01*
X100973582Y-89327597D01*
X100978541Y-89341457D01*
X100982118Y-89355736D01*
X100984278Y-89370297D01*
X100985000Y-89385000D01*
X100985000Y-89685000D01*
X100984278Y-89699703D01*
X100982118Y-89714264D01*
X100978541Y-89728543D01*
X100973582Y-89742403D01*
X100967288Y-89755710D01*
X100959720Y-89768336D01*
X100950952Y-89780159D01*
X100941066Y-89791066D01*
X100930159Y-89800952D01*
X100918336Y-89809720D01*
X100905710Y-89817288D01*
X100892403Y-89823582D01*
X100878543Y-89828541D01*
X100864264Y-89832118D01*
X100849703Y-89834278D01*
X100835000Y-89835000D01*
X99485000Y-89835000D01*
X99470297Y-89834278D01*
X99455736Y-89832118D01*
X99441457Y-89828541D01*
X99427597Y-89823582D01*
X99414290Y-89817288D01*
X99401664Y-89809720D01*
X99389841Y-89800952D01*
X99378934Y-89791066D01*
X99369048Y-89780159D01*
X99360280Y-89768336D01*
X99352712Y-89755710D01*
X99346418Y-89742403D01*
X99341459Y-89728543D01*
X99337882Y-89714264D01*
X99335722Y-89699703D01*
X99335000Y-89685000D01*
X99335000Y-89385000D01*
X99335722Y-89370297D01*
X99337882Y-89355736D01*
X99341459Y-89341457D01*
X99346418Y-89327597D01*
X99352712Y-89314290D01*
X99360280Y-89301664D01*
X99369048Y-89289841D01*
X99378934Y-89278934D01*
X99389841Y-89269048D01*
X99401664Y-89260280D01*
X99414290Y-89252712D01*
X99427597Y-89246418D01*
X99441457Y-89241459D01*
X99455736Y-89237882D01*
X99470297Y-89235722D01*
X99485000Y-89235000D01*
X100835000Y-89235000D01*
X100849703Y-89235722D01*
G37*
G36*
X100849703Y-90505722D02*
G01*
X100864264Y-90507882D01*
X100878543Y-90511459D01*
X100892403Y-90516418D01*
X100905710Y-90522712D01*
X100918336Y-90530280D01*
X100930159Y-90539048D01*
X100941066Y-90548934D01*
X100950952Y-90559841D01*
X100959720Y-90571664D01*
X100967288Y-90584290D01*
X100973582Y-90597597D01*
X100978541Y-90611457D01*
X100982118Y-90625736D01*
X100984278Y-90640297D01*
X100985000Y-90655000D01*
X100985000Y-90955000D01*
X100984278Y-90969703D01*
X100982118Y-90984264D01*
X100978541Y-90998543D01*
X100973582Y-91012403D01*
X100967288Y-91025710D01*
X100959720Y-91038336D01*
X100950952Y-91050159D01*
X100941066Y-91061066D01*
X100930159Y-91070952D01*
X100918336Y-91079720D01*
X100905710Y-91087288D01*
X100892403Y-91093582D01*
X100878543Y-91098541D01*
X100864264Y-91102118D01*
X100849703Y-91104278D01*
X100835000Y-91105000D01*
X99485000Y-91105000D01*
X99470297Y-91104278D01*
X99455736Y-91102118D01*
X99441457Y-91098541D01*
X99427597Y-91093582D01*
X99414290Y-91087288D01*
X99401664Y-91079720D01*
X99389841Y-91070952D01*
X99378934Y-91061066D01*
X99369048Y-91050159D01*
X99360280Y-91038336D01*
X99352712Y-91025710D01*
X99346418Y-91012403D01*
X99341459Y-90998543D01*
X99337882Y-90984264D01*
X99335722Y-90969703D01*
X99335000Y-90955000D01*
X99335000Y-90655000D01*
X99335722Y-90640297D01*
X99337882Y-90625736D01*
X99341459Y-90611457D01*
X99346418Y-90597597D01*
X99352712Y-90584290D01*
X99360280Y-90571664D01*
X99369048Y-90559841D01*
X99378934Y-90548934D01*
X99389841Y-90539048D01*
X99401664Y-90530280D01*
X99414290Y-90522712D01*
X99427597Y-90516418D01*
X99441457Y-90511459D01*
X99455736Y-90507882D01*
X99470297Y-90505722D01*
X99485000Y-90505000D01*
X100835000Y-90505000D01*
X100849703Y-90505722D01*
G37*
G36*
X100849703Y-91775722D02*
G01*
X100864264Y-91777882D01*
X100878543Y-91781459D01*
X100892403Y-91786418D01*
X100905710Y-91792712D01*
X100918336Y-91800280D01*
X100930159Y-91809048D01*
X100941066Y-91818934D01*
X100950952Y-91829841D01*
X100959720Y-91841664D01*
X100967288Y-91854290D01*
X100973582Y-91867597D01*
X100978541Y-91881457D01*
X100982118Y-91895736D01*
X100984278Y-91910297D01*
X100985000Y-91925000D01*
X100985000Y-92225000D01*
X100984278Y-92239703D01*
X100982118Y-92254264D01*
X100978541Y-92268543D01*
X100973582Y-92282403D01*
X100967288Y-92295710D01*
X100959720Y-92308336D01*
X100950952Y-92320159D01*
X100941066Y-92331066D01*
X100930159Y-92340952D01*
X100918336Y-92349720D01*
X100905710Y-92357288D01*
X100892403Y-92363582D01*
X100878543Y-92368541D01*
X100864264Y-92372118D01*
X100849703Y-92374278D01*
X100835000Y-92375000D01*
X99485000Y-92375000D01*
X99470297Y-92374278D01*
X99455736Y-92372118D01*
X99441457Y-92368541D01*
X99427597Y-92363582D01*
X99414290Y-92357288D01*
X99401664Y-92349720D01*
X99389841Y-92340952D01*
X99378934Y-92331066D01*
X99369048Y-92320159D01*
X99360280Y-92308336D01*
X99352712Y-92295710D01*
X99346418Y-92282403D01*
X99341459Y-92268543D01*
X99337882Y-92254264D01*
X99335722Y-92239703D01*
X99335000Y-92225000D01*
X99335000Y-91925000D01*
X99335722Y-91910297D01*
X99337882Y-91895736D01*
X99341459Y-91881457D01*
X99346418Y-91867597D01*
X99352712Y-91854290D01*
X99360280Y-91841664D01*
X99369048Y-91829841D01*
X99378934Y-91818934D01*
X99389841Y-91809048D01*
X99401664Y-91800280D01*
X99414290Y-91792712D01*
X99427597Y-91786418D01*
X99441457Y-91781459D01*
X99455736Y-91777882D01*
X99470297Y-91775722D01*
X99485000Y-91775000D01*
X100835000Y-91775000D01*
X100849703Y-91775722D01*
G37*
G36*
X100849703Y-93045722D02*
G01*
X100864264Y-93047882D01*
X100878543Y-93051459D01*
X100892403Y-93056418D01*
X100905710Y-93062712D01*
X100918336Y-93070280D01*
X100930159Y-93079048D01*
X100941066Y-93088934D01*
X100950952Y-93099841D01*
X100959720Y-93111664D01*
X100967288Y-93124290D01*
X100973582Y-93137597D01*
X100978541Y-93151457D01*
X100982118Y-93165736D01*
X100984278Y-93180297D01*
X100985000Y-93195000D01*
X100985000Y-93495000D01*
X100984278Y-93509703D01*
X100982118Y-93524264D01*
X100978541Y-93538543D01*
X100973582Y-93552403D01*
X100967288Y-93565710D01*
X100959720Y-93578336D01*
X100950952Y-93590159D01*
X100941066Y-93601066D01*
X100930159Y-93610952D01*
X100918336Y-93619720D01*
X100905710Y-93627288D01*
X100892403Y-93633582D01*
X100878543Y-93638541D01*
X100864264Y-93642118D01*
X100849703Y-93644278D01*
X100835000Y-93645000D01*
X99485000Y-93645000D01*
X99470297Y-93644278D01*
X99455736Y-93642118D01*
X99441457Y-93638541D01*
X99427597Y-93633582D01*
X99414290Y-93627288D01*
X99401664Y-93619720D01*
X99389841Y-93610952D01*
X99378934Y-93601066D01*
X99369048Y-93590159D01*
X99360280Y-93578336D01*
X99352712Y-93565710D01*
X99346418Y-93552403D01*
X99341459Y-93538543D01*
X99337882Y-93524264D01*
X99335722Y-93509703D01*
X99335000Y-93495000D01*
X99335000Y-93195000D01*
X99335722Y-93180297D01*
X99337882Y-93165736D01*
X99341459Y-93151457D01*
X99346418Y-93137597D01*
X99352712Y-93124290D01*
X99360280Y-93111664D01*
X99369048Y-93099841D01*
X99378934Y-93088934D01*
X99389841Y-93079048D01*
X99401664Y-93070280D01*
X99414290Y-93062712D01*
X99427597Y-93056418D01*
X99441457Y-93051459D01*
X99455736Y-93047882D01*
X99470297Y-93045722D01*
X99485000Y-93045000D01*
X100835000Y-93045000D01*
X100849703Y-93045722D01*
G37*
G36*
X106099703Y-93045722D02*
G01*
X106114264Y-93047882D01*
X106128543Y-93051459D01*
X106142403Y-93056418D01*
X106155710Y-93062712D01*
X106168336Y-93070280D01*
X106180159Y-93079048D01*
X106191066Y-93088934D01*
X106200952Y-93099841D01*
X106209720Y-93111664D01*
X106217288Y-93124290D01*
X106223582Y-93137597D01*
X106228541Y-93151457D01*
X106232118Y-93165736D01*
X106234278Y-93180297D01*
X106235000Y-93195000D01*
X106235000Y-93495000D01*
X106234278Y-93509703D01*
X106232118Y-93524264D01*
X106228541Y-93538543D01*
X106223582Y-93552403D01*
X106217288Y-93565710D01*
X106209720Y-93578336D01*
X106200952Y-93590159D01*
X106191066Y-93601066D01*
X106180159Y-93610952D01*
X106168336Y-93619720D01*
X106155710Y-93627288D01*
X106142403Y-93633582D01*
X106128543Y-93638541D01*
X106114264Y-93642118D01*
X106099703Y-93644278D01*
X106085000Y-93645000D01*
X104735000Y-93645000D01*
X104720297Y-93644278D01*
X104705736Y-93642118D01*
X104691457Y-93638541D01*
X104677597Y-93633582D01*
X104664290Y-93627288D01*
X104651664Y-93619720D01*
X104639841Y-93610952D01*
X104628934Y-93601066D01*
X104619048Y-93590159D01*
X104610280Y-93578336D01*
X104602712Y-93565710D01*
X104596418Y-93552403D01*
X104591459Y-93538543D01*
X104587882Y-93524264D01*
X104585722Y-93509703D01*
X104585000Y-93495000D01*
X104585000Y-93195000D01*
X104585722Y-93180297D01*
X104587882Y-93165736D01*
X104591459Y-93151457D01*
X104596418Y-93137597D01*
X104602712Y-93124290D01*
X104610280Y-93111664D01*
X104619048Y-93099841D01*
X104628934Y-93088934D01*
X104639841Y-93079048D01*
X104651664Y-93070280D01*
X104664290Y-93062712D01*
X104677597Y-93056418D01*
X104691457Y-93051459D01*
X104705736Y-93047882D01*
X104720297Y-93045722D01*
X104735000Y-93045000D01*
X106085000Y-93045000D01*
X106099703Y-93045722D01*
G37*
G36*
X106099703Y-91775722D02*
G01*
X106114264Y-91777882D01*
X106128543Y-91781459D01*
X106142403Y-91786418D01*
X106155710Y-91792712D01*
X106168336Y-91800280D01*
X106180159Y-91809048D01*
X106191066Y-91818934D01*
X106200952Y-91829841D01*
X106209720Y-91841664D01*
X106217288Y-91854290D01*
X106223582Y-91867597D01*
X106228541Y-91881457D01*
X106232118Y-91895736D01*
X106234278Y-91910297D01*
X106235000Y-91925000D01*
X106235000Y-92225000D01*
X106234278Y-92239703D01*
X106232118Y-92254264D01*
X106228541Y-92268543D01*
X106223582Y-92282403D01*
X106217288Y-92295710D01*
X106209720Y-92308336D01*
X106200952Y-92320159D01*
X106191066Y-92331066D01*
X106180159Y-92340952D01*
X106168336Y-92349720D01*
X106155710Y-92357288D01*
X106142403Y-92363582D01*
X106128543Y-92368541D01*
X106114264Y-92372118D01*
X106099703Y-92374278D01*
X106085000Y-92375000D01*
X104735000Y-92375000D01*
X104720297Y-92374278D01*
X104705736Y-92372118D01*
X104691457Y-92368541D01*
X104677597Y-92363582D01*
X104664290Y-92357288D01*
X104651664Y-92349720D01*
X104639841Y-92340952D01*
X104628934Y-92331066D01*
X104619048Y-92320159D01*
X104610280Y-92308336D01*
X104602712Y-92295710D01*
X104596418Y-92282403D01*
X104591459Y-92268543D01*
X104587882Y-92254264D01*
X104585722Y-92239703D01*
X104585000Y-92225000D01*
X104585000Y-91925000D01*
X104585722Y-91910297D01*
X104587882Y-91895736D01*
X104591459Y-91881457D01*
X104596418Y-91867597D01*
X104602712Y-91854290D01*
X104610280Y-91841664D01*
X104619048Y-91829841D01*
X104628934Y-91818934D01*
X104639841Y-91809048D01*
X104651664Y-91800280D01*
X104664290Y-91792712D01*
X104677597Y-91786418D01*
X104691457Y-91781459D01*
X104705736Y-91777882D01*
X104720297Y-91775722D01*
X104735000Y-91775000D01*
X106085000Y-91775000D01*
X106099703Y-91775722D01*
G37*
G36*
X106099703Y-90505722D02*
G01*
X106114264Y-90507882D01*
X106128543Y-90511459D01*
X106142403Y-90516418D01*
X106155710Y-90522712D01*
X106168336Y-90530280D01*
X106180159Y-90539048D01*
X106191066Y-90548934D01*
X106200952Y-90559841D01*
X106209720Y-90571664D01*
X106217288Y-90584290D01*
X106223582Y-90597597D01*
X106228541Y-90611457D01*
X106232118Y-90625736D01*
X106234278Y-90640297D01*
X106235000Y-90655000D01*
X106235000Y-90955000D01*
X106234278Y-90969703D01*
X106232118Y-90984264D01*
X106228541Y-90998543D01*
X106223582Y-91012403D01*
X106217288Y-91025710D01*
X106209720Y-91038336D01*
X106200952Y-91050159D01*
X106191066Y-91061066D01*
X106180159Y-91070952D01*
X106168336Y-91079720D01*
X106155710Y-91087288D01*
X106142403Y-91093582D01*
X106128543Y-91098541D01*
X106114264Y-91102118D01*
X106099703Y-91104278D01*
X106085000Y-91105000D01*
X104735000Y-91105000D01*
X104720297Y-91104278D01*
X104705736Y-91102118D01*
X104691457Y-91098541D01*
X104677597Y-91093582D01*
X104664290Y-91087288D01*
X104651664Y-91079720D01*
X104639841Y-91070952D01*
X104628934Y-91061066D01*
X104619048Y-91050159D01*
X104610280Y-91038336D01*
X104602712Y-91025710D01*
X104596418Y-91012403D01*
X104591459Y-90998543D01*
X104587882Y-90984264D01*
X104585722Y-90969703D01*
X104585000Y-90955000D01*
X104585000Y-90655000D01*
X104585722Y-90640297D01*
X104587882Y-90625736D01*
X104591459Y-90611457D01*
X104596418Y-90597597D01*
X104602712Y-90584290D01*
X104610280Y-90571664D01*
X104619048Y-90559841D01*
X104628934Y-90548934D01*
X104639841Y-90539048D01*
X104651664Y-90530280D01*
X104664290Y-90522712D01*
X104677597Y-90516418D01*
X104691457Y-90511459D01*
X104705736Y-90507882D01*
X104720297Y-90505722D01*
X104735000Y-90505000D01*
X106085000Y-90505000D01*
X106099703Y-90505722D01*
G37*
G36*
X106099703Y-89235722D02*
G01*
X106114264Y-89237882D01*
X106128543Y-89241459D01*
X106142403Y-89246418D01*
X106155710Y-89252712D01*
X106168336Y-89260280D01*
X106180159Y-89269048D01*
X106191066Y-89278934D01*
X106200952Y-89289841D01*
X106209720Y-89301664D01*
X106217288Y-89314290D01*
X106223582Y-89327597D01*
X106228541Y-89341457D01*
X106232118Y-89355736D01*
X106234278Y-89370297D01*
X106235000Y-89385000D01*
X106235000Y-89685000D01*
X106234278Y-89699703D01*
X106232118Y-89714264D01*
X106228541Y-89728543D01*
X106223582Y-89742403D01*
X106217288Y-89755710D01*
X106209720Y-89768336D01*
X106200952Y-89780159D01*
X106191066Y-89791066D01*
X106180159Y-89800952D01*
X106168336Y-89809720D01*
X106155710Y-89817288D01*
X106142403Y-89823582D01*
X106128543Y-89828541D01*
X106114264Y-89832118D01*
X106099703Y-89834278D01*
X106085000Y-89835000D01*
X104735000Y-89835000D01*
X104720297Y-89834278D01*
X104705736Y-89832118D01*
X104691457Y-89828541D01*
X104677597Y-89823582D01*
X104664290Y-89817288D01*
X104651664Y-89809720D01*
X104639841Y-89800952D01*
X104628934Y-89791066D01*
X104619048Y-89780159D01*
X104610280Y-89768336D01*
X104602712Y-89755710D01*
X104596418Y-89742403D01*
X104591459Y-89728543D01*
X104587882Y-89714264D01*
X104585722Y-89699703D01*
X104585000Y-89685000D01*
X104585000Y-89385000D01*
X104585722Y-89370297D01*
X104587882Y-89355736D01*
X104591459Y-89341457D01*
X104596418Y-89327597D01*
X104602712Y-89314290D01*
X104610280Y-89301664D01*
X104619048Y-89289841D01*
X104628934Y-89278934D01*
X104639841Y-89269048D01*
X104651664Y-89260280D01*
X104664290Y-89252712D01*
X104677597Y-89246418D01*
X104691457Y-89241459D01*
X104705736Y-89237882D01*
X104720297Y-89235722D01*
X104735000Y-89235000D01*
X106085000Y-89235000D01*
X106099703Y-89235722D01*
G37*
G36*
X98270142Y-89653674D02*
G01*
X98293803Y-89657184D01*
X98317007Y-89662996D01*
X98339529Y-89671054D01*
X98361153Y-89681282D01*
X98381670Y-89693579D01*
X98400883Y-89707829D01*
X98418607Y-89723893D01*
X98434671Y-89741617D01*
X98448921Y-89760830D01*
X98461218Y-89781347D01*
X98471446Y-89802971D01*
X98479504Y-89825493D01*
X98485316Y-89848697D01*
X98488826Y-89872358D01*
X98490000Y-89896250D01*
X98490000Y-90383750D01*
X98488826Y-90407642D01*
X98485316Y-90431303D01*
X98479504Y-90454507D01*
X98471446Y-90477029D01*
X98461218Y-90498653D01*
X98448921Y-90519170D01*
X98434671Y-90538383D01*
X98418607Y-90556107D01*
X98400883Y-90572171D01*
X98381670Y-90586421D01*
X98361153Y-90598718D01*
X98339529Y-90608946D01*
X98317007Y-90617004D01*
X98293803Y-90622816D01*
X98270142Y-90626326D01*
X98246250Y-90627500D01*
X97333750Y-90627500D01*
X97309858Y-90626326D01*
X97286197Y-90622816D01*
X97262993Y-90617004D01*
X97240471Y-90608946D01*
X97218847Y-90598718D01*
X97198330Y-90586421D01*
X97179117Y-90572171D01*
X97161393Y-90556107D01*
X97145329Y-90538383D01*
X97131079Y-90519170D01*
X97118782Y-90498653D01*
X97108554Y-90477029D01*
X97100496Y-90454507D01*
X97094684Y-90431303D01*
X97091174Y-90407642D01*
X97090000Y-90383750D01*
X97090000Y-89896250D01*
X97091174Y-89872358D01*
X97094684Y-89848697D01*
X97100496Y-89825493D01*
X97108554Y-89802971D01*
X97118782Y-89781347D01*
X97131079Y-89760830D01*
X97145329Y-89741617D01*
X97161393Y-89723893D01*
X97179117Y-89707829D01*
X97198330Y-89693579D01*
X97218847Y-89681282D01*
X97240471Y-89671054D01*
X97262993Y-89662996D01*
X97286197Y-89657184D01*
X97309858Y-89653674D01*
X97333750Y-89652500D01*
X98246250Y-89652500D01*
X98270142Y-89653674D01*
G37*
G36*
X98270142Y-87778674D02*
G01*
X98293803Y-87782184D01*
X98317007Y-87787996D01*
X98339529Y-87796054D01*
X98361153Y-87806282D01*
X98381670Y-87818579D01*
X98400883Y-87832829D01*
X98418607Y-87848893D01*
X98434671Y-87866617D01*
X98448921Y-87885830D01*
X98461218Y-87906347D01*
X98471446Y-87927971D01*
X98479504Y-87950493D01*
X98485316Y-87973697D01*
X98488826Y-87997358D01*
X98490000Y-88021250D01*
X98490000Y-88508750D01*
X98488826Y-88532642D01*
X98485316Y-88556303D01*
X98479504Y-88579507D01*
X98471446Y-88602029D01*
X98461218Y-88623653D01*
X98448921Y-88644170D01*
X98434671Y-88663383D01*
X98418607Y-88681107D01*
X98400883Y-88697171D01*
X98381670Y-88711421D01*
X98361153Y-88723718D01*
X98339529Y-88733946D01*
X98317007Y-88742004D01*
X98293803Y-88747816D01*
X98270142Y-88751326D01*
X98246250Y-88752500D01*
X97333750Y-88752500D01*
X97309858Y-88751326D01*
X97286197Y-88747816D01*
X97262993Y-88742004D01*
X97240471Y-88733946D01*
X97218847Y-88723718D01*
X97198330Y-88711421D01*
X97179117Y-88697171D01*
X97161393Y-88681107D01*
X97145329Y-88663383D01*
X97131079Y-88644170D01*
X97118782Y-88623653D01*
X97108554Y-88602029D01*
X97100496Y-88579507D01*
X97094684Y-88556303D01*
X97091174Y-88532642D01*
X97090000Y-88508750D01*
X97090000Y-88021250D01*
X97091174Y-87997358D01*
X97094684Y-87973697D01*
X97100496Y-87950493D01*
X97108554Y-87927971D01*
X97118782Y-87906347D01*
X97131079Y-87885830D01*
X97145329Y-87866617D01*
X97161393Y-87848893D01*
X97179117Y-87832829D01*
X97198330Y-87818579D01*
X97218847Y-87806282D01*
X97240471Y-87796054D01*
X97262993Y-87787996D01*
X97286197Y-87782184D01*
X97309858Y-87778674D01*
X97333750Y-87777500D01*
X98246250Y-87777500D01*
X98270142Y-87778674D01*
G37*
G36*
X98270142Y-72538674D02*
G01*
X98293803Y-72542184D01*
X98317007Y-72547996D01*
X98339529Y-72556054D01*
X98361153Y-72566282D01*
X98381670Y-72578579D01*
X98400883Y-72592829D01*
X98418607Y-72608893D01*
X98434671Y-72626617D01*
X98448921Y-72645830D01*
X98461218Y-72666347D01*
X98471446Y-72687971D01*
X98479504Y-72710493D01*
X98485316Y-72733697D01*
X98488826Y-72757358D01*
X98490000Y-72781250D01*
X98490000Y-73268750D01*
X98488826Y-73292642D01*
X98485316Y-73316303D01*
X98479504Y-73339507D01*
X98471446Y-73362029D01*
X98461218Y-73383653D01*
X98448921Y-73404170D01*
X98434671Y-73423383D01*
X98418607Y-73441107D01*
X98400883Y-73457171D01*
X98381670Y-73471421D01*
X98361153Y-73483718D01*
X98339529Y-73493946D01*
X98317007Y-73502004D01*
X98293803Y-73507816D01*
X98270142Y-73511326D01*
X98246250Y-73512500D01*
X97333750Y-73512500D01*
X97309858Y-73511326D01*
X97286197Y-73507816D01*
X97262993Y-73502004D01*
X97240471Y-73493946D01*
X97218847Y-73483718D01*
X97198330Y-73471421D01*
X97179117Y-73457171D01*
X97161393Y-73441107D01*
X97145329Y-73423383D01*
X97131079Y-73404170D01*
X97118782Y-73383653D01*
X97108554Y-73362029D01*
X97100496Y-73339507D01*
X97094684Y-73316303D01*
X97091174Y-73292642D01*
X97090000Y-73268750D01*
X97090000Y-72781250D01*
X97091174Y-72757358D01*
X97094684Y-72733697D01*
X97100496Y-72710493D01*
X97108554Y-72687971D01*
X97118782Y-72666347D01*
X97131079Y-72645830D01*
X97145329Y-72626617D01*
X97161393Y-72608893D01*
X97179117Y-72592829D01*
X97198330Y-72578579D01*
X97218847Y-72566282D01*
X97240471Y-72556054D01*
X97262993Y-72547996D01*
X97286197Y-72542184D01*
X97309858Y-72538674D01*
X97333750Y-72537500D01*
X98246250Y-72537500D01*
X98270142Y-72538674D01*
G37*
G36*
X98270142Y-74413674D02*
G01*
X98293803Y-74417184D01*
X98317007Y-74422996D01*
X98339529Y-74431054D01*
X98361153Y-74441282D01*
X98381670Y-74453579D01*
X98400883Y-74467829D01*
X98418607Y-74483893D01*
X98434671Y-74501617D01*
X98448921Y-74520830D01*
X98461218Y-74541347D01*
X98471446Y-74562971D01*
X98479504Y-74585493D01*
X98485316Y-74608697D01*
X98488826Y-74632358D01*
X98490000Y-74656250D01*
X98490000Y-75143750D01*
X98488826Y-75167642D01*
X98485316Y-75191303D01*
X98479504Y-75214507D01*
X98471446Y-75237029D01*
X98461218Y-75258653D01*
X98448921Y-75279170D01*
X98434671Y-75298383D01*
X98418607Y-75316107D01*
X98400883Y-75332171D01*
X98381670Y-75346421D01*
X98361153Y-75358718D01*
X98339529Y-75368946D01*
X98317007Y-75377004D01*
X98293803Y-75382816D01*
X98270142Y-75386326D01*
X98246250Y-75387500D01*
X97333750Y-75387500D01*
X97309858Y-75386326D01*
X97286197Y-75382816D01*
X97262993Y-75377004D01*
X97240471Y-75368946D01*
X97218847Y-75358718D01*
X97198330Y-75346421D01*
X97179117Y-75332171D01*
X97161393Y-75316107D01*
X97145329Y-75298383D01*
X97131079Y-75279170D01*
X97118782Y-75258653D01*
X97108554Y-75237029D01*
X97100496Y-75214507D01*
X97094684Y-75191303D01*
X97091174Y-75167642D01*
X97090000Y-75143750D01*
X97090000Y-74656250D01*
X97091174Y-74632358D01*
X97094684Y-74608697D01*
X97100496Y-74585493D01*
X97108554Y-74562971D01*
X97118782Y-74541347D01*
X97131079Y-74520830D01*
X97145329Y-74501617D01*
X97161393Y-74483893D01*
X97179117Y-74467829D01*
X97198330Y-74453579D01*
X97218847Y-74441282D01*
X97240471Y-74431054D01*
X97262993Y-74422996D01*
X97286197Y-74417184D01*
X97309858Y-74413674D01*
X97333750Y-74412500D01*
X98246250Y-74412500D01*
X98270142Y-74413674D01*
G37*
G36*
X108862691Y-76093553D02*
G01*
X108883926Y-76096703D01*
X108904750Y-76101919D01*
X108924962Y-76109151D01*
X108944368Y-76118330D01*
X108962781Y-76129366D01*
X108980024Y-76142154D01*
X108995930Y-76156570D01*
X109010346Y-76172476D01*
X109023134Y-76189719D01*
X109034170Y-76208132D01*
X109043349Y-76227538D01*
X109050581Y-76247750D01*
X109055797Y-76268574D01*
X109058947Y-76289809D01*
X109060000Y-76311250D01*
X109060000Y-76748750D01*
X109058947Y-76770191D01*
X109055797Y-76791426D01*
X109050581Y-76812250D01*
X109043349Y-76832462D01*
X109034170Y-76851868D01*
X109023134Y-76870281D01*
X109010346Y-76887524D01*
X108995930Y-76903430D01*
X108980024Y-76917846D01*
X108962781Y-76930634D01*
X108944368Y-76941670D01*
X108924962Y-76950849D01*
X108904750Y-76958081D01*
X108883926Y-76963297D01*
X108862691Y-76966447D01*
X108841250Y-76967500D01*
X108328750Y-76967500D01*
X108307309Y-76966447D01*
X108286074Y-76963297D01*
X108265250Y-76958081D01*
X108245038Y-76950849D01*
X108225632Y-76941670D01*
X108207219Y-76930634D01*
X108189976Y-76917846D01*
X108174070Y-76903430D01*
X108159654Y-76887524D01*
X108146866Y-76870281D01*
X108135830Y-76851868D01*
X108126651Y-76832462D01*
X108119419Y-76812250D01*
X108114203Y-76791426D01*
X108111053Y-76770191D01*
X108110000Y-76748750D01*
X108110000Y-76311250D01*
X108111053Y-76289809D01*
X108114203Y-76268574D01*
X108119419Y-76247750D01*
X108126651Y-76227538D01*
X108135830Y-76208132D01*
X108146866Y-76189719D01*
X108159654Y-76172476D01*
X108174070Y-76156570D01*
X108189976Y-76142154D01*
X108207219Y-76129366D01*
X108225632Y-76118330D01*
X108245038Y-76109151D01*
X108265250Y-76101919D01*
X108286074Y-76096703D01*
X108307309Y-76093553D01*
X108328750Y-76092500D01*
X108841250Y-76092500D01*
X108862691Y-76093553D01*
G37*
G36*
X108862691Y-77668553D02*
G01*
X108883926Y-77671703D01*
X108904750Y-77676919D01*
X108924962Y-77684151D01*
X108944368Y-77693330D01*
X108962781Y-77704366D01*
X108980024Y-77717154D01*
X108995930Y-77731570D01*
X109010346Y-77747476D01*
X109023134Y-77764719D01*
X109034170Y-77783132D01*
X109043349Y-77802538D01*
X109050581Y-77822750D01*
X109055797Y-77843574D01*
X109058947Y-77864809D01*
X109060000Y-77886250D01*
X109060000Y-78323750D01*
X109058947Y-78345191D01*
X109055797Y-78366426D01*
X109050581Y-78387250D01*
X109043349Y-78407462D01*
X109034170Y-78426868D01*
X109023134Y-78445281D01*
X109010346Y-78462524D01*
X108995930Y-78478430D01*
X108980024Y-78492846D01*
X108962781Y-78505634D01*
X108944368Y-78516670D01*
X108924962Y-78525849D01*
X108904750Y-78533081D01*
X108883926Y-78538297D01*
X108862691Y-78541447D01*
X108841250Y-78542500D01*
X108328750Y-78542500D01*
X108307309Y-78541447D01*
X108286074Y-78538297D01*
X108265250Y-78533081D01*
X108245038Y-78525849D01*
X108225632Y-78516670D01*
X108207219Y-78505634D01*
X108189976Y-78492846D01*
X108174070Y-78478430D01*
X108159654Y-78462524D01*
X108146866Y-78445281D01*
X108135830Y-78426868D01*
X108126651Y-78407462D01*
X108119419Y-78387250D01*
X108114203Y-78366426D01*
X108111053Y-78345191D01*
X108110000Y-78323750D01*
X108110000Y-77886250D01*
X108111053Y-77864809D01*
X108114203Y-77843574D01*
X108119419Y-77822750D01*
X108126651Y-77802538D01*
X108135830Y-77783132D01*
X108146866Y-77764719D01*
X108159654Y-77747476D01*
X108174070Y-77731570D01*
X108189976Y-77717154D01*
X108207219Y-77704366D01*
X108225632Y-77693330D01*
X108245038Y-77684151D01*
X108265250Y-77676919D01*
X108286074Y-77671703D01*
X108307309Y-77668553D01*
X108328750Y-77667500D01*
X108841250Y-77667500D01*
X108862691Y-77668553D01*
G37*
G36*
X106099703Y-73995722D02*
G01*
X106114264Y-73997882D01*
X106128543Y-74001459D01*
X106142403Y-74006418D01*
X106155710Y-74012712D01*
X106168336Y-74020280D01*
X106180159Y-74029048D01*
X106191066Y-74038934D01*
X106200952Y-74049841D01*
X106209720Y-74061664D01*
X106217288Y-74074290D01*
X106223582Y-74087597D01*
X106228541Y-74101457D01*
X106232118Y-74115736D01*
X106234278Y-74130297D01*
X106235000Y-74145000D01*
X106235000Y-74445000D01*
X106234278Y-74459703D01*
X106232118Y-74474264D01*
X106228541Y-74488543D01*
X106223582Y-74502403D01*
X106217288Y-74515710D01*
X106209720Y-74528336D01*
X106200952Y-74540159D01*
X106191066Y-74551066D01*
X106180159Y-74560952D01*
X106168336Y-74569720D01*
X106155710Y-74577288D01*
X106142403Y-74583582D01*
X106128543Y-74588541D01*
X106114264Y-74592118D01*
X106099703Y-74594278D01*
X106085000Y-74595000D01*
X104735000Y-74595000D01*
X104720297Y-74594278D01*
X104705736Y-74592118D01*
X104691457Y-74588541D01*
X104677597Y-74583582D01*
X104664290Y-74577288D01*
X104651664Y-74569720D01*
X104639841Y-74560952D01*
X104628934Y-74551066D01*
X104619048Y-74540159D01*
X104610280Y-74528336D01*
X104602712Y-74515710D01*
X104596418Y-74502403D01*
X104591459Y-74488543D01*
X104587882Y-74474264D01*
X104585722Y-74459703D01*
X104585000Y-74445000D01*
X104585000Y-74145000D01*
X104585722Y-74130297D01*
X104587882Y-74115736D01*
X104591459Y-74101457D01*
X104596418Y-74087597D01*
X104602712Y-74074290D01*
X104610280Y-74061664D01*
X104619048Y-74049841D01*
X104628934Y-74038934D01*
X104639841Y-74029048D01*
X104651664Y-74020280D01*
X104664290Y-74012712D01*
X104677597Y-74006418D01*
X104691457Y-74001459D01*
X104705736Y-73997882D01*
X104720297Y-73995722D01*
X104735000Y-73995000D01*
X106085000Y-73995000D01*
X106099703Y-73995722D01*
G37*
G36*
X106099703Y-75265722D02*
G01*
X106114264Y-75267882D01*
X106128543Y-75271459D01*
X106142403Y-75276418D01*
X106155710Y-75282712D01*
X106168336Y-75290280D01*
X106180159Y-75299048D01*
X106191066Y-75308934D01*
X106200952Y-75319841D01*
X106209720Y-75331664D01*
X106217288Y-75344290D01*
X106223582Y-75357597D01*
X106228541Y-75371457D01*
X106232118Y-75385736D01*
X106234278Y-75400297D01*
X106235000Y-75415000D01*
X106235000Y-75715000D01*
X106234278Y-75729703D01*
X106232118Y-75744264D01*
X106228541Y-75758543D01*
X106223582Y-75772403D01*
X106217288Y-75785710D01*
X106209720Y-75798336D01*
X106200952Y-75810159D01*
X106191066Y-75821066D01*
X106180159Y-75830952D01*
X106168336Y-75839720D01*
X106155710Y-75847288D01*
X106142403Y-75853582D01*
X106128543Y-75858541D01*
X106114264Y-75862118D01*
X106099703Y-75864278D01*
X106085000Y-75865000D01*
X104735000Y-75865000D01*
X104720297Y-75864278D01*
X104705736Y-75862118D01*
X104691457Y-75858541D01*
X104677597Y-75853582D01*
X104664290Y-75847288D01*
X104651664Y-75839720D01*
X104639841Y-75830952D01*
X104628934Y-75821066D01*
X104619048Y-75810159D01*
X104610280Y-75798336D01*
X104602712Y-75785710D01*
X104596418Y-75772403D01*
X104591459Y-75758543D01*
X104587882Y-75744264D01*
X104585722Y-75729703D01*
X104585000Y-75715000D01*
X104585000Y-75415000D01*
X104585722Y-75400297D01*
X104587882Y-75385736D01*
X104591459Y-75371457D01*
X104596418Y-75357597D01*
X104602712Y-75344290D01*
X104610280Y-75331664D01*
X104619048Y-75319841D01*
X104628934Y-75308934D01*
X104639841Y-75299048D01*
X104651664Y-75290280D01*
X104664290Y-75282712D01*
X104677597Y-75276418D01*
X104691457Y-75271459D01*
X104705736Y-75267882D01*
X104720297Y-75265722D01*
X104735000Y-75265000D01*
X106085000Y-75265000D01*
X106099703Y-75265722D01*
G37*
G36*
X106099703Y-76535722D02*
G01*
X106114264Y-76537882D01*
X106128543Y-76541459D01*
X106142403Y-76546418D01*
X106155710Y-76552712D01*
X106168336Y-76560280D01*
X106180159Y-76569048D01*
X106191066Y-76578934D01*
X106200952Y-76589841D01*
X106209720Y-76601664D01*
X106217288Y-76614290D01*
X106223582Y-76627597D01*
X106228541Y-76641457D01*
X106232118Y-76655736D01*
X106234278Y-76670297D01*
X106235000Y-76685000D01*
X106235000Y-76985000D01*
X106234278Y-76999703D01*
X106232118Y-77014264D01*
X106228541Y-77028543D01*
X106223582Y-77042403D01*
X106217288Y-77055710D01*
X106209720Y-77068336D01*
X106200952Y-77080159D01*
X106191066Y-77091066D01*
X106180159Y-77100952D01*
X106168336Y-77109720D01*
X106155710Y-77117288D01*
X106142403Y-77123582D01*
X106128543Y-77128541D01*
X106114264Y-77132118D01*
X106099703Y-77134278D01*
X106085000Y-77135000D01*
X104735000Y-77135000D01*
X104720297Y-77134278D01*
X104705736Y-77132118D01*
X104691457Y-77128541D01*
X104677597Y-77123582D01*
X104664290Y-77117288D01*
X104651664Y-77109720D01*
X104639841Y-77100952D01*
X104628934Y-77091066D01*
X104619048Y-77080159D01*
X104610280Y-77068336D01*
X104602712Y-77055710D01*
X104596418Y-77042403D01*
X104591459Y-77028543D01*
X104587882Y-77014264D01*
X104585722Y-76999703D01*
X104585000Y-76985000D01*
X104585000Y-76685000D01*
X104585722Y-76670297D01*
X104587882Y-76655736D01*
X104591459Y-76641457D01*
X104596418Y-76627597D01*
X104602712Y-76614290D01*
X104610280Y-76601664D01*
X104619048Y-76589841D01*
X104628934Y-76578934D01*
X104639841Y-76569048D01*
X104651664Y-76560280D01*
X104664290Y-76552712D01*
X104677597Y-76546418D01*
X104691457Y-76541459D01*
X104705736Y-76537882D01*
X104720297Y-76535722D01*
X104735000Y-76535000D01*
X106085000Y-76535000D01*
X106099703Y-76535722D01*
G37*
G36*
X106099703Y-77805722D02*
G01*
X106114264Y-77807882D01*
X106128543Y-77811459D01*
X106142403Y-77816418D01*
X106155710Y-77822712D01*
X106168336Y-77830280D01*
X106180159Y-77839048D01*
X106191066Y-77848934D01*
X106200952Y-77859841D01*
X106209720Y-77871664D01*
X106217288Y-77884290D01*
X106223582Y-77897597D01*
X106228541Y-77911457D01*
X106232118Y-77925736D01*
X106234278Y-77940297D01*
X106235000Y-77955000D01*
X106235000Y-78255000D01*
X106234278Y-78269703D01*
X106232118Y-78284264D01*
X106228541Y-78298543D01*
X106223582Y-78312403D01*
X106217288Y-78325710D01*
X106209720Y-78338336D01*
X106200952Y-78350159D01*
X106191066Y-78361066D01*
X106180159Y-78370952D01*
X106168336Y-78379720D01*
X106155710Y-78387288D01*
X106142403Y-78393582D01*
X106128543Y-78398541D01*
X106114264Y-78402118D01*
X106099703Y-78404278D01*
X106085000Y-78405000D01*
X104735000Y-78405000D01*
X104720297Y-78404278D01*
X104705736Y-78402118D01*
X104691457Y-78398541D01*
X104677597Y-78393582D01*
X104664290Y-78387288D01*
X104651664Y-78379720D01*
X104639841Y-78370952D01*
X104628934Y-78361066D01*
X104619048Y-78350159D01*
X104610280Y-78338336D01*
X104602712Y-78325710D01*
X104596418Y-78312403D01*
X104591459Y-78298543D01*
X104587882Y-78284264D01*
X104585722Y-78269703D01*
X104585000Y-78255000D01*
X104585000Y-77955000D01*
X104585722Y-77940297D01*
X104587882Y-77925736D01*
X104591459Y-77911457D01*
X104596418Y-77897597D01*
X104602712Y-77884290D01*
X104610280Y-77871664D01*
X104619048Y-77859841D01*
X104628934Y-77848934D01*
X104639841Y-77839048D01*
X104651664Y-77830280D01*
X104664290Y-77822712D01*
X104677597Y-77816418D01*
X104691457Y-77811459D01*
X104705736Y-77807882D01*
X104720297Y-77805722D01*
X104735000Y-77805000D01*
X106085000Y-77805000D01*
X106099703Y-77805722D01*
G37*
G36*
X100849703Y-77805722D02*
G01*
X100864264Y-77807882D01*
X100878543Y-77811459D01*
X100892403Y-77816418D01*
X100905710Y-77822712D01*
X100918336Y-77830280D01*
X100930159Y-77839048D01*
X100941066Y-77848934D01*
X100950952Y-77859841D01*
X100959720Y-77871664D01*
X100967288Y-77884290D01*
X100973582Y-77897597D01*
X100978541Y-77911457D01*
X100982118Y-77925736D01*
X100984278Y-77940297D01*
X100985000Y-77955000D01*
X100985000Y-78255000D01*
X100984278Y-78269703D01*
X100982118Y-78284264D01*
X100978541Y-78298543D01*
X100973582Y-78312403D01*
X100967288Y-78325710D01*
X100959720Y-78338336D01*
X100950952Y-78350159D01*
X100941066Y-78361066D01*
X100930159Y-78370952D01*
X100918336Y-78379720D01*
X100905710Y-78387288D01*
X100892403Y-78393582D01*
X100878543Y-78398541D01*
X100864264Y-78402118D01*
X100849703Y-78404278D01*
X100835000Y-78405000D01*
X99485000Y-78405000D01*
X99470297Y-78404278D01*
X99455736Y-78402118D01*
X99441457Y-78398541D01*
X99427597Y-78393582D01*
X99414290Y-78387288D01*
X99401664Y-78379720D01*
X99389841Y-78370952D01*
X99378934Y-78361066D01*
X99369048Y-78350159D01*
X99360280Y-78338336D01*
X99352712Y-78325710D01*
X99346418Y-78312403D01*
X99341459Y-78298543D01*
X99337882Y-78284264D01*
X99335722Y-78269703D01*
X99335000Y-78255000D01*
X99335000Y-77955000D01*
X99335722Y-77940297D01*
X99337882Y-77925736D01*
X99341459Y-77911457D01*
X99346418Y-77897597D01*
X99352712Y-77884290D01*
X99360280Y-77871664D01*
X99369048Y-77859841D01*
X99378934Y-77848934D01*
X99389841Y-77839048D01*
X99401664Y-77830280D01*
X99414290Y-77822712D01*
X99427597Y-77816418D01*
X99441457Y-77811459D01*
X99455736Y-77807882D01*
X99470297Y-77805722D01*
X99485000Y-77805000D01*
X100835000Y-77805000D01*
X100849703Y-77805722D01*
G37*
G36*
X100849703Y-76535722D02*
G01*
X100864264Y-76537882D01*
X100878543Y-76541459D01*
X100892403Y-76546418D01*
X100905710Y-76552712D01*
X100918336Y-76560280D01*
X100930159Y-76569048D01*
X100941066Y-76578934D01*
X100950952Y-76589841D01*
X100959720Y-76601664D01*
X100967288Y-76614290D01*
X100973582Y-76627597D01*
X100978541Y-76641457D01*
X100982118Y-76655736D01*
X100984278Y-76670297D01*
X100985000Y-76685000D01*
X100985000Y-76985000D01*
X100984278Y-76999703D01*
X100982118Y-77014264D01*
X100978541Y-77028543D01*
X100973582Y-77042403D01*
X100967288Y-77055710D01*
X100959720Y-77068336D01*
X100950952Y-77080159D01*
X100941066Y-77091066D01*
X100930159Y-77100952D01*
X100918336Y-77109720D01*
X100905710Y-77117288D01*
X100892403Y-77123582D01*
X100878543Y-77128541D01*
X100864264Y-77132118D01*
X100849703Y-77134278D01*
X100835000Y-77135000D01*
X99485000Y-77135000D01*
X99470297Y-77134278D01*
X99455736Y-77132118D01*
X99441457Y-77128541D01*
X99427597Y-77123582D01*
X99414290Y-77117288D01*
X99401664Y-77109720D01*
X99389841Y-77100952D01*
X99378934Y-77091066D01*
X99369048Y-77080159D01*
X99360280Y-77068336D01*
X99352712Y-77055710D01*
X99346418Y-77042403D01*
X99341459Y-77028543D01*
X99337882Y-77014264D01*
X99335722Y-76999703D01*
X99335000Y-76985000D01*
X99335000Y-76685000D01*
X99335722Y-76670297D01*
X99337882Y-76655736D01*
X99341459Y-76641457D01*
X99346418Y-76627597D01*
X99352712Y-76614290D01*
X99360280Y-76601664D01*
X99369048Y-76589841D01*
X99378934Y-76578934D01*
X99389841Y-76569048D01*
X99401664Y-76560280D01*
X99414290Y-76552712D01*
X99427597Y-76546418D01*
X99441457Y-76541459D01*
X99455736Y-76537882D01*
X99470297Y-76535722D01*
X99485000Y-76535000D01*
X100835000Y-76535000D01*
X100849703Y-76535722D01*
G37*
G36*
X100849703Y-75265722D02*
G01*
X100864264Y-75267882D01*
X100878543Y-75271459D01*
X100892403Y-75276418D01*
X100905710Y-75282712D01*
X100918336Y-75290280D01*
X100930159Y-75299048D01*
X100941066Y-75308934D01*
X100950952Y-75319841D01*
X100959720Y-75331664D01*
X100967288Y-75344290D01*
X100973582Y-75357597D01*
X100978541Y-75371457D01*
X100982118Y-75385736D01*
X100984278Y-75400297D01*
X100985000Y-75415000D01*
X100985000Y-75715000D01*
X100984278Y-75729703D01*
X100982118Y-75744264D01*
X100978541Y-75758543D01*
X100973582Y-75772403D01*
X100967288Y-75785710D01*
X100959720Y-75798336D01*
X100950952Y-75810159D01*
X100941066Y-75821066D01*
X100930159Y-75830952D01*
X100918336Y-75839720D01*
X100905710Y-75847288D01*
X100892403Y-75853582D01*
X100878543Y-75858541D01*
X100864264Y-75862118D01*
X100849703Y-75864278D01*
X100835000Y-75865000D01*
X99485000Y-75865000D01*
X99470297Y-75864278D01*
X99455736Y-75862118D01*
X99441457Y-75858541D01*
X99427597Y-75853582D01*
X99414290Y-75847288D01*
X99401664Y-75839720D01*
X99389841Y-75830952D01*
X99378934Y-75821066D01*
X99369048Y-75810159D01*
X99360280Y-75798336D01*
X99352712Y-75785710D01*
X99346418Y-75772403D01*
X99341459Y-75758543D01*
X99337882Y-75744264D01*
X99335722Y-75729703D01*
X99335000Y-75715000D01*
X99335000Y-75415000D01*
X99335722Y-75400297D01*
X99337882Y-75385736D01*
X99341459Y-75371457D01*
X99346418Y-75357597D01*
X99352712Y-75344290D01*
X99360280Y-75331664D01*
X99369048Y-75319841D01*
X99378934Y-75308934D01*
X99389841Y-75299048D01*
X99401664Y-75290280D01*
X99414290Y-75282712D01*
X99427597Y-75276418D01*
X99441457Y-75271459D01*
X99455736Y-75267882D01*
X99470297Y-75265722D01*
X99485000Y-75265000D01*
X100835000Y-75265000D01*
X100849703Y-75265722D01*
G37*
G36*
X100849703Y-73995722D02*
G01*
X100864264Y-73997882D01*
X100878543Y-74001459D01*
X100892403Y-74006418D01*
X100905710Y-74012712D01*
X100918336Y-74020280D01*
X100930159Y-74029048D01*
X100941066Y-74038934D01*
X100950952Y-74049841D01*
X100959720Y-74061664D01*
X100967288Y-74074290D01*
X100973582Y-74087597D01*
X100978541Y-74101457D01*
X100982118Y-74115736D01*
X100984278Y-74130297D01*
X100985000Y-74145000D01*
X100985000Y-74445000D01*
X100984278Y-74459703D01*
X100982118Y-74474264D01*
X100978541Y-74488543D01*
X100973582Y-74502403D01*
X100967288Y-74515710D01*
X100959720Y-74528336D01*
X100950952Y-74540159D01*
X100941066Y-74551066D01*
X100930159Y-74560952D01*
X100918336Y-74569720D01*
X100905710Y-74577288D01*
X100892403Y-74583582D01*
X100878543Y-74588541D01*
X100864264Y-74592118D01*
X100849703Y-74594278D01*
X100835000Y-74595000D01*
X99485000Y-74595000D01*
X99470297Y-74594278D01*
X99455736Y-74592118D01*
X99441457Y-74588541D01*
X99427597Y-74583582D01*
X99414290Y-74577288D01*
X99401664Y-74569720D01*
X99389841Y-74560952D01*
X99378934Y-74551066D01*
X99369048Y-74540159D01*
X99360280Y-74528336D01*
X99352712Y-74515710D01*
X99346418Y-74502403D01*
X99341459Y-74488543D01*
X99337882Y-74474264D01*
X99335722Y-74459703D01*
X99335000Y-74445000D01*
X99335000Y-74145000D01*
X99335722Y-74130297D01*
X99337882Y-74115736D01*
X99341459Y-74101457D01*
X99346418Y-74087597D01*
X99352712Y-74074290D01*
X99360280Y-74061664D01*
X99369048Y-74049841D01*
X99378934Y-74038934D01*
X99389841Y-74029048D01*
X99401664Y-74020280D01*
X99414290Y-74012712D01*
X99427597Y-74006418D01*
X99441457Y-74001459D01*
X99455736Y-73997882D01*
X99470297Y-73995722D01*
X99485000Y-73995000D01*
X100835000Y-73995000D01*
X100849703Y-73995722D01*
G37*
G36*
X102421958Y-71125710D02*
G01*
X102436276Y-71127834D01*
X102450317Y-71131351D01*
X102463946Y-71136228D01*
X102477031Y-71142417D01*
X102489447Y-71149858D01*
X102501073Y-71158481D01*
X102511798Y-71168202D01*
X102521519Y-71178927D01*
X102530142Y-71190553D01*
X102537583Y-71202969D01*
X102543772Y-71216054D01*
X102548649Y-71229683D01*
X102552166Y-71243724D01*
X102554290Y-71258042D01*
X102555000Y-71272500D01*
X102555000Y-71567500D01*
X102554290Y-71581958D01*
X102552166Y-71596276D01*
X102548649Y-71610317D01*
X102543772Y-71623946D01*
X102537583Y-71637031D01*
X102530142Y-71649447D01*
X102521519Y-71661073D01*
X102511798Y-71671798D01*
X102501073Y-71681519D01*
X102489447Y-71690142D01*
X102477031Y-71697583D01*
X102463946Y-71703772D01*
X102450317Y-71708649D01*
X102436276Y-71712166D01*
X102421958Y-71714290D01*
X102407500Y-71715000D01*
X102062500Y-71715000D01*
X102048042Y-71714290D01*
X102033724Y-71712166D01*
X102019683Y-71708649D01*
X102006054Y-71703772D01*
X101992969Y-71697583D01*
X101980553Y-71690142D01*
X101968927Y-71681519D01*
X101958202Y-71671798D01*
X101948481Y-71661073D01*
X101939858Y-71649447D01*
X101932417Y-71637031D01*
X101926228Y-71623946D01*
X101921351Y-71610317D01*
X101917834Y-71596276D01*
X101915710Y-71581958D01*
X101915000Y-71567500D01*
X101915000Y-71272500D01*
X101915710Y-71258042D01*
X101917834Y-71243724D01*
X101921351Y-71229683D01*
X101926228Y-71216054D01*
X101932417Y-71202969D01*
X101939858Y-71190553D01*
X101948481Y-71178927D01*
X101958202Y-71168202D01*
X101968927Y-71158481D01*
X101980553Y-71149858D01*
X101992969Y-71142417D01*
X102006054Y-71136228D01*
X102019683Y-71131351D01*
X102033724Y-71127834D01*
X102048042Y-71125710D01*
X102062500Y-71125000D01*
X102407500Y-71125000D01*
X102421958Y-71125710D01*
G37*
G36*
X102421958Y-72095710D02*
G01*
X102436276Y-72097834D01*
X102450317Y-72101351D01*
X102463946Y-72106228D01*
X102477031Y-72112417D01*
X102489447Y-72119858D01*
X102501073Y-72128481D01*
X102511798Y-72138202D01*
X102521519Y-72148927D01*
X102530142Y-72160553D01*
X102537583Y-72172969D01*
X102543772Y-72186054D01*
X102548649Y-72199683D01*
X102552166Y-72213724D01*
X102554290Y-72228042D01*
X102555000Y-72242500D01*
X102555000Y-72537500D01*
X102554290Y-72551958D01*
X102552166Y-72566276D01*
X102548649Y-72580317D01*
X102543772Y-72593946D01*
X102537583Y-72607031D01*
X102530142Y-72619447D01*
X102521519Y-72631073D01*
X102511798Y-72641798D01*
X102501073Y-72651519D01*
X102489447Y-72660142D01*
X102477031Y-72667583D01*
X102463946Y-72673772D01*
X102450317Y-72678649D01*
X102436276Y-72682166D01*
X102421958Y-72684290D01*
X102407500Y-72685000D01*
X102062500Y-72685000D01*
X102048042Y-72684290D01*
X102033724Y-72682166D01*
X102019683Y-72678649D01*
X102006054Y-72673772D01*
X101992969Y-72667583D01*
X101980553Y-72660142D01*
X101968927Y-72651519D01*
X101958202Y-72641798D01*
X101948481Y-72631073D01*
X101939858Y-72619447D01*
X101932417Y-72607031D01*
X101926228Y-72593946D01*
X101921351Y-72580317D01*
X101917834Y-72566276D01*
X101915710Y-72551958D01*
X101915000Y-72537500D01*
X101915000Y-72242500D01*
X101915710Y-72228042D01*
X101917834Y-72213724D01*
X101921351Y-72199683D01*
X101926228Y-72186054D01*
X101932417Y-72172969D01*
X101939858Y-72160553D01*
X101948481Y-72148927D01*
X101958202Y-72138202D01*
X101968927Y-72128481D01*
X101980553Y-72119858D01*
X101992969Y-72112417D01*
X102006054Y-72106228D01*
X102019683Y-72101351D01*
X102033724Y-72097834D01*
X102048042Y-72095710D01*
X102062500Y-72095000D01*
X102407500Y-72095000D01*
X102421958Y-72095710D01*
G37*
G36*
X103691958Y-71460710D02*
G01*
X103706276Y-71462834D01*
X103720317Y-71466351D01*
X103733946Y-71471228D01*
X103747031Y-71477417D01*
X103759447Y-71484858D01*
X103771073Y-71493481D01*
X103781798Y-71503202D01*
X103791519Y-71513927D01*
X103800142Y-71525553D01*
X103807583Y-71537969D01*
X103813772Y-71551054D01*
X103818649Y-71564683D01*
X103822166Y-71578724D01*
X103824290Y-71593042D01*
X103825000Y-71607500D01*
X103825000Y-71902500D01*
X103824290Y-71916958D01*
X103822166Y-71931276D01*
X103818649Y-71945317D01*
X103813772Y-71958946D01*
X103807583Y-71972031D01*
X103800142Y-71984447D01*
X103791519Y-71996073D01*
X103781798Y-72006798D01*
X103771073Y-72016519D01*
X103759447Y-72025142D01*
X103747031Y-72032583D01*
X103733946Y-72038772D01*
X103720317Y-72043649D01*
X103706276Y-72047166D01*
X103691958Y-72049290D01*
X103677500Y-72050000D01*
X103332500Y-72050000D01*
X103318042Y-72049290D01*
X103303724Y-72047166D01*
X103289683Y-72043649D01*
X103276054Y-72038772D01*
X103262969Y-72032583D01*
X103250553Y-72025142D01*
X103238927Y-72016519D01*
X103228202Y-72006798D01*
X103218481Y-71996073D01*
X103209858Y-71984447D01*
X103202417Y-71972031D01*
X103196228Y-71958946D01*
X103191351Y-71945317D01*
X103187834Y-71931276D01*
X103185710Y-71916958D01*
X103185000Y-71902500D01*
X103185000Y-71607500D01*
X103185710Y-71593042D01*
X103187834Y-71578724D01*
X103191351Y-71564683D01*
X103196228Y-71551054D01*
X103202417Y-71537969D01*
X103209858Y-71525553D01*
X103218481Y-71513927D01*
X103228202Y-71503202D01*
X103238927Y-71493481D01*
X103250553Y-71484858D01*
X103262969Y-71477417D01*
X103276054Y-71471228D01*
X103289683Y-71466351D01*
X103303724Y-71462834D01*
X103318042Y-71460710D01*
X103332500Y-71460000D01*
X103677500Y-71460000D01*
X103691958Y-71460710D01*
G37*
G36*
X103691958Y-72430710D02*
G01*
X103706276Y-72432834D01*
X103720317Y-72436351D01*
X103733946Y-72441228D01*
X103747031Y-72447417D01*
X103759447Y-72454858D01*
X103771073Y-72463481D01*
X103781798Y-72473202D01*
X103791519Y-72483927D01*
X103800142Y-72495553D01*
X103807583Y-72507969D01*
X103813772Y-72521054D01*
X103818649Y-72534683D01*
X103822166Y-72548724D01*
X103824290Y-72563042D01*
X103825000Y-72577500D01*
X103825000Y-72872500D01*
X103824290Y-72886958D01*
X103822166Y-72901276D01*
X103818649Y-72915317D01*
X103813772Y-72928946D01*
X103807583Y-72942031D01*
X103800142Y-72954447D01*
X103791519Y-72966073D01*
X103781798Y-72976798D01*
X103771073Y-72986519D01*
X103759447Y-72995142D01*
X103747031Y-73002583D01*
X103733946Y-73008772D01*
X103720317Y-73013649D01*
X103706276Y-73017166D01*
X103691958Y-73019290D01*
X103677500Y-73020000D01*
X103332500Y-73020000D01*
X103318042Y-73019290D01*
X103303724Y-73017166D01*
X103289683Y-73013649D01*
X103276054Y-73008772D01*
X103262969Y-73002583D01*
X103250553Y-72995142D01*
X103238927Y-72986519D01*
X103228202Y-72976798D01*
X103218481Y-72966073D01*
X103209858Y-72954447D01*
X103202417Y-72942031D01*
X103196228Y-72928946D01*
X103191351Y-72915317D01*
X103187834Y-72901276D01*
X103185710Y-72886958D01*
X103185000Y-72872500D01*
X103185000Y-72577500D01*
X103185710Y-72563042D01*
X103187834Y-72548724D01*
X103191351Y-72534683D01*
X103196228Y-72521054D01*
X103202417Y-72507969D01*
X103209858Y-72495553D01*
X103218481Y-72483927D01*
X103228202Y-72473202D01*
X103238927Y-72463481D01*
X103250553Y-72454858D01*
X103262969Y-72447417D01*
X103276054Y-72441228D01*
X103289683Y-72436351D01*
X103303724Y-72432834D01*
X103318042Y-72430710D01*
X103332500Y-72430000D01*
X103677500Y-72430000D01*
X103691958Y-72430710D01*
G37*
D12*
X81940000Y-77075000D03*
X81940000Y-81675000D03*
X81940000Y-79375000D03*
D13*
X88240000Y-79375000D03*
M02*
